<svg width="625" height="556" xmlns="http://www.w3.org/2000/svg" xmlns:xlink="http://www.w3.org/1999/xlink" overflow="hidden"><defs><clipPath id="clip0"><rect x="1051" y="262" width="625" height="556"/></clipPath><clipPath id="clip1"><rect x="1051" y="262" width="624" height="556"/></clipPath><clipPath id="clip2"><rect x="1051" y="262" width="624" height="556"/></clipPath><clipPath id="clip3"><rect x="1051" y="262" width="624" height="556"/></clipPath><clipPath id="clip4"><rect x="1051.16" y="619.719" width="587.625" height="198.247"/></clipPath><clipPath id="clip5"><rect x="1116.64" y="262" width="558.219" height="555.966"/></clipPath></defs><g clip-path="url(#clip0)" transform="translate(-1051 -262)"><g clip-path="url(#clip1)"><g clip-path="url(#clip2)"><g clip-path="url(#clip3)"><g clip-path="url(#clip4)"><path d="M227.32 363.737C259.611 356.284 291.491 356.294 327.273 359.298 320.6 378.766 300.511 423.91 295.185 433.784 290.889 441.755 277.02 451.617 279.046 461.637 282.067 476.565 309.505 484.41 320.934 485.485 372.553 490.328 393.506 446.851 412.203 403.426 414.641 397.767 412.203 403.426 421.485 379.119 506.234 413.77 586.91 552.573 586.91 552.573 586.91 552.573-2.04936 558.303 0.00647507 552.793 4.81422 539.891 24.1423 479.777 82.6284 431.285 89.1876 435.633 96.9739 437.572 104.624 439.152 146.625 447.832 199.244 409.985 227.32 363.737" fill="#CBC933" fill-rule="evenodd" transform="matrix(1 0 0 1.00141 1051.16 262)"/></g><g clip-path="url(#clip5)"><path d="M339.624 382.684C343.237 383.895 346.86 385.066 350.492 386.226 359.033 388.948 368.487 390.81 376.571 394.705M244.563 393.688C247.539 392.636 254.875 390.124 257.86 389.094 265.724 386.378 273.708 383.801 281.484 380.874M476.763 373.376C481.703 368.396 490.755 359.477 495.586 354.401 511.55 337.624 526.491 319.888 540.539 301.6 583.507 245.648 634.728 120.783 616.32 3.95031M214.312 297.999C216.29 299.511 211.557 293.936 210.181 291.903 207.348 287.727 204.716 283.424 201.987 279.189 193.676 266.304 185.511 253.325 176.685 240.753 165.506 224.828 152.986 209.663 137.628 197.254 125.539 187.489 58.5476 155.231 70.7984 136.715 77.7041 126.274 91.0362 120.437 102.996 117.319 152.676 104.366 194.43 150.773 221.92 183.242 229.881 192.647 237.91 202.13 248.662 214.827M391.123 288.921C391.097 290.032 382.159 284.075 381.987 283.932 378.154 280.724 374.547 277.26 371.174 273.605 359.936 261.431 350.69 247.394 343.13 232.863 324.848 197.72 311.849 160.038 294.629 124.361 291.547 117.973 278.318 100.905 279.046 93.5491 279.467 89.3014 292.799 82.2728 296.105 80.1554 305.61 74.0688 317.722 72.3076 328.885 71.4141 398.544 65.8358 412.465 164.131 432.308 210.136 439.466 226.732 449.266 241.818 460.455 256.154M375.732 496.218C390.288 506.037 424.486 543.372 427.063 543.405 431.894 543.46 443.461 519.764 444.957 516.436 458.377 486.541 464.227 456.943 462.087 424.5 462.087 424.5 488.693 357.92 471.184 326.509M291.841 504.153C283.728 512.036 275.514 519.971 266.77 527.204 261.962 531.18 225.611 554.292 222.38 551.417 219.201 548.594 218.352 535.288 217.472 531.533 213.392 514.179 209.935 496.473 210.579 478.609 210.877 470.32 214.347 447.052 214.344 447.013 212.606 433.655 207.782 420.061 203.162 407.451 197.176 391.114 186.136 375.373 184.915 357.719 182.221 318.749 217.766 300.126 251.106 292.379M278.091 498.506C281.167 499.879 284.46 500.844 287.726 501.689 295.979 503.823 304.406 505.179 312.927 505.797 339.025 507.691 363.277 502.09 385.454 489.037" stroke="#5E6697" stroke-width="7.04488" stroke-linecap="round" stroke-linejoin="round" stroke-miterlimit="10" fill="none" transform="matrix(1 0 0 -1.00141 1051.16 817.967)"/></g><path d="M101.555 117.067C102.934 125.889 142.5 155.431 151.488 161.375M79.4265 127.682C79.0509 127.375 79.8085 129.036 79.8214 129.062 80.9416 130.816 82.2593 132.448 83.6029 134.034 87.0282 138.068 90.8906 141.785 94.7303 145.418 105.323 155.438 116.982 164.963 129.735 172.127M322.821 71.8608C323.087 71.9288 323.922 75.9887 324.003 76.2671 325.291 80.8191 326.703 85.3225 328.267 89.7903 333.806 105.641 341.133 119.498 350.952 133.028M296.49 80.3918C295.982 80.7285 297.517 85.5524 301.612 95.9805 307.459 110.87 314.734 125.306 324.654 137.91M230.817 326.321C228.939 327.108 207.416 320.779 204.997 320.193 180.612 314.275 156.311 307.9 132.091 301.389M236.887 336.743C236.984 336.682 236.657 336.788 236.541 336.801 233.789 337.112 230.975 337.009 228.217 336.953 221.48 336.824 214.755 336.481 208.038 335.995 187.155 334.496 166.328 332.094 145.621 329.119M240.51 348.029C240.497 348.631 227.926 350.833 222.085 351.768 200.662 355.203 179.107 358.405 157.496 360.536M395.115 327.406C395.19 328.338 396.98 326.862 397.932 326.674 400.279 326.208 402.626 325.755 404.961 325.224 411.031 323.841 417.095 322.41 423.149 320.954 440.528 316.758 457.719 311.83 474.652 306.19M395.601 341.123C394.384 341.395 398.104 341.036 399.35 341.114 401.215 341.233 403.073 341.369 404.938 341.46 410.432 341.726 415.939 341.803 421.44 341.735 439.563 341.515 473.538 335.26 491.131 331.139M391.127 358.065C391.017 357.984 390.997 358.088 391.308 358.12 394.157 358.422 397 358.797 399.852 359.092 405.657 359.694 411.471 360.193 417.289 360.672 436.025 362.219 469.682 362.057 488.476 362.553M307.631 346.656C311.529 344.698 318.897 340.346 322.433 337.821M305.795 346.873C305.74 346.624 294.464 342.674 290.999 340.997M307.258 354.585 307.177 349.114" stroke="#5E6697" stroke-width="7.04488" stroke-linecap="round" stroke-linejoin="round" stroke-miterlimit="10" fill="none" transform="matrix(1 0 0 -1.00141 1051.16 817.967)"/><path d="M240.785 34.7841C228.745 32.6991 226.469 85.2443 230.82 83.9752 236.887 82.2043 259.093 70.766 268.382 53.7334 270.729 49.4274 245.564 35.6129 240.785 34.7841ZM427.154 48.2457C420.038 45.3028 401.81 64.5597 402.384 66.6641 405.517 78.2124 433.93 104.245 436.996 99.3664 443.928 88.3426 439.414 53.319 427.154 48.2457ZM319.117 184.947C319.321 190.416 308.948 197.8 307.747 197.198 304.694 195.654 297.368 186.476 299.265 184.436 301.159 182.393 319.023 182.393 319.117 184.947" fill="#E06CB9" fill-rule="evenodd" transform="matrix(1 0 0 1.00141 1051.16 262)"/></g></g></g></g></svg>