<svg width="732" height="614" xmlns="http://www.w3.org/2000/svg" xmlns:xlink="http://www.w3.org/1999/xlink" overflow="hidden"><defs><clipPath id="clip0"><rect x="894" y="278" width="732" height="614"/></clipPath><clipPath id="clip1"><rect x="895" y="279" width="730" height="613"/></clipPath><clipPath id="clip2"><rect x="895" y="279" width="730" height="614"/></clipPath><clipPath id="clip3"><rect x="895" y="279" width="730" height="614"/></clipPath><clipPath id="clip4"><rect x="1337.37" y="585.344" width="287.359" height="291.806"/></clipPath><clipPath id="clip5"><rect x="895.237" y="279" width="593.667" height="612.948"/></clipPath></defs><g clip-path="url(#clip0)" transform="translate(-894 -278)"><g clip-path="url(#clip1)"><g clip-path="url(#clip2)"><g clip-path="url(#clip3)"><path d="M374.873 179.906C374.492 179.776 374.172 179.78 374.845 180.019 379.961 181.864 387.806 183.542 392.217 179.379 395.051 176.699 395.797 172.474 398.7 169.92 401.688 167.293 405.936 166.636 409.054 164.123 416.871 157.814 414.316 144.65 408.243 138.237 392.286 121.395 390.79 140.268 386.075 150.987 382.787 158.467 378.668 165.57 375.295 173.026ZM33.6338 269.463C33.4838 269.626 32.7581 269.885 32.6851 269.881 30.2161 269.857 27.6579 268.499 26.5835 266.216 24.5767 261.963 26.7862 256.859 29.5471 253.522 37.0758 244.429 39.6624 251.978 46.0356 249.707 46.6924 249.472 47.3249 249.107 47.9046 248.722 52.1291 245.908 60.4078 235.716 66.2459 241.283 67.5594 242.535 67.7459 244.461 67.1824 246.111 64.2634 254.657 41.4989 254.138 33.8486 270.25L33.6338 269.463C33.6743 269.419 33.6703 269.378 33.6013 269.354ZM356.698 295.617C352.275 288.984 349.433 280.706 354.286 273.789 355.551 271.981 358.721 269.845 359.203 267.663 360.995 259.616 351.963 241.692 371.224 243.362 384.473 244.51 389.306 261.067 385.876 272.005 384.441 276.579 380.516 280.24 379.75 284.959 378.725 291.275 383.058 301.184 378.335 306.592 377.699 307.318 376.953 307.593 376.134 307.516 375.943 311.356 374.719 315.065 371.549 318.511 359.475 331.647 354.213 309.734 356.698 295.617ZM246.29 344.312C242.831 340.364 248.625 331.331 251.305 329.085 255.391 325.659 260.195 323.287 264.258 319.764 272.828 312.329 280.353 303.632 290.233 297.81 295.581 294.66 303.726 290.768 308.287 296.955 313.967 304.658 313.731 316.48 309.106 324.759 312.045 331.282 314.384 337.639 311.129 341.596 307.97 345.427 302.153 340.643 298.934 337.558 298.735 338.186 298.609 338.851 298.565 339.557 298.066 348.014 306.997 365.24 295.24 369.627 279.607 375.461 269.751 358.843 261.327 348.221 257.767 351.707 253.907 354.253 248.718 352.222 244.952 350.75 244.798 347.402 246.29 344.312ZM105.377 368.269C105.268 368.184 103.987 369.55 100.245 375.084 95.7808 381.672 93.5875 390.409 101.599 395.262 101.959 395.481 130.448 403.938 130.477 403.934 136.501 402.754 147.355 393.072 136.972 389.947ZM297.798 473.496C289.864 466.855 291.77 445.222 302.793 440.105 308.887 437.275 315.73 441.107 321.588 436.866 327.147 432.844 332.717 421.265 340.205 420.856 342.326 420.742 343.765 422.319 344.645 424.079 350.531 435.852 336.03 447.48 328.148 453.598 321.195 458.994 314.587 464.601 308.274 470.743ZM245.296 473.382C245.917 473.544 244.331 474.351 244.23 474.984 243.525 479.383 244.83 483.948 245.88 488.184 249.464 502.638 242.166 507.081 238.611 519.625 238.031 521.676 240.496 528.787 238.907 529.72 229.704 535.116 221.316 517.561 221.802 510.77 222.183 505.415 226.189 500.031 228.751 495.51 232.42 489.036 235.874 482.379 239.868 476.103L245.296 473.382" fill="#DB5879" fill-rule="evenodd" transform="matrix(1 0 0 1.00055 895.237 279)"/><g clip-path="url(#clip4)"><path d="M708.466 514.342C706.597 512.688 704.688 511.054 702.741 509.449 702.79 509.27 702.827 509.084 702.851 508.897 708.924 464.378 695.922 413.98 667.174 370.636 661.226 361.672 654.079 352.352 645.313 342.143 644.709 341.442 642.711 339.257 641.576 338.02 640.809 337.185 640.071 336.386 639.524 335.794 639.435 335.697 639.338 335.596 639.236 335.486 640.031 332.815 640.761 330.24 641.405 327.8 678.655 348.091 707.773 390.648 716.376 425.222 724.144 456.424 721.289 487.41 708.466 514.342ZM698.594 531.439C697.195 533.474 695.748 535.452 694.24 537.386 694.264 536.211 693.814 535.031 692.906 534.147 671.962 513.795 645.07 498.17 615.134 488.963 605.473 485.995 595.025 483.737 584.087 482.253 583.519 482.176 582.81 482.168 580.856 482.152 580.418 482.148 579.83 482.143 579.181 482.131 582.372 477.388 585.352 472.62 588.161 467.812 591.474 468.075 594.749 468.44 597.916 468.886 607.451 470.236 617.035 472.592 626.409 475.88 653.653 485.44 681.931 502.313 703.994 522.171 704.083 522.252 704.173 522.325 704.262 522.398 702.51 525.475 700.621 528.491 698.594 531.439ZM673.47 558.367C673.219 557.71 672.809 557.106 672.238 556.611 647.738 535.42 619.675 519.13 591.088 509.505 584.285 507.215 576.907 505.228 569.159 503.607 567.075 503.169 565.381 502.848 563.986 502.625 567.225 498.644 570.294 494.663 573.197 490.678 574.932 490.901 577.324 490.941 580.774 490.974 581.614 490.982 582.643 490.99 582.98 491.006 593.415 492.425 603.36 494.574 612.543 497.395 641.146 506.193 666.809 521.088 686.756 540.471 687.867 541.55 689.395 541.927 690.802 541.611 685.568 547.761 679.77 553.356 673.47 558.367ZM648.476 573.935C631.387 556.186 604.69 543.987 578.354 533.441L577.559 533.121C560.52 526.225 554.787 524.753 552.176 524.753 551.195 524.753 550.652 524.96 550.116 525.167 550.068 525.187 550.019 525.203 549.975 525.228 549.318 523.707 548.677 522.179 548.053 520.659 548.211 520.533 548.361 520.395 548.503 520.241 551.503 517.067 554.373 513.908 557.13 510.754 557.605 510.997 558.136 511.16 558.699 511.216 559.291 511.277 559.871 511.216 560.406 511.054 561.553 511.155 564.091 511.557 567.355 512.238 574.758 513.791 581.796 515.684 588.275 517.869 615.783 527.129 642.824 542.835 666.468 563.285 666.525 563.337 666.586 563.386 666.647 563.435 660.93 567.387 654.861 570.894 648.476 573.935ZM618.227 584.285C618 583.596 617.595 582.952 617.023 582.424 608.311 574.43 597.024 569.309 587.131 565.352 583.235 563.791 579.424 562.449 575.812 561.367 574.79 561.063 573.424 560.678 571.94 560.426 571.592 560.37 571.259 560.349 570.951 560.349 570.862 560.349 570.777 560.353 570.692 560.353 570.144 560.216 569.577 560.183 569.021 560.256 563.293 551.872 558.298 543.005 553.931 533.92 556.348 534.524 561.857 536.284 574.251 541.299L575.074 541.631C599.282 551.321 623.733 562.393 639.771 577.718 632.887 580.426 625.695 582.627 618.227 584.285ZM603.498 586.815C599.935 587.253 596.42 587.594 592.949 587.845 587.164 582.668 581.865 577.012 577.008 571.008 579.234 571.762 581.524 572.609 583.852 573.542 591.778 576.708 600.632 580.653 607.836 586.219 606.401 586.438 604.954 586.637 603.498 586.815ZM550.295 585.871C550.137 585.177 549.812 584.512 549.31 583.941 509.011 537.877 500.371 453.841 498.531 419.85 497.416 399.271 498.121 381.181 500.692 364.539 501.673 358.194 502.877 352.603 504.377 347.438 504.985 345.334 505.524 343.741 506.104 342.326 510.276 338.932 514.383 336.026 518.331 333.54 510.965 364.847 513.766 395.022 515.656 415.35 515.858 417.523 516.049 419.603 516.219 421.574 519.211 456.006 531.418 538.538 580.685 588.344 570.055 588.449 559.899 587.602 550.295 585.871ZM509.201 571.069C509.088 570.266 508.743 569.479 508.172 568.823 476.581 532.306 473.167 460.218 473.163 430.918L473.159 381.948C473.159 381.729 473.143 381.518 473.115 381.307 473.123 381.295 473.127 381.287 473.135 381.275 479.61 370.336 486.603 361.312 493.678 353.86 493.045 356.816 492.482 359.913 491.975 363.193 489.307 380.444 488.573 399.133 489.721 420.329 491.525 453.614 499.743 533.705 537.013 582.802 527.02 579.96 517.719 576.039 509.201 571.069ZM472.344 535.927C447.099 497.331 444.468 444.147 464.337 398.489L464.341 430.918C464.345 456.797 466.989 515.043 488.679 555.634 482.585 549.808 477.124 543.236 472.344 535.927ZM609.069 323.214C609.276 321.674 609.49 320.076 609.6 319.574 609.904 318.649 609.884 317.688 609.6 316.821 617.733 318.017 625.671 320.429 633.329 323.814 630.155 336.305 624.28 353.329 619.05 368.492 616.504 375.874 614.096 382.852 612.268 388.544 612.264 388.56 612.259 388.572 612.255 388.584 611.558 389.359 611.128 390.368 611.092 391.443 611.084 391.666 611.092 391.884 611.12 392.099 607.82 402.198 604.427 411.843 600.754 421.16 600.324 421.752 600.044 422.449 599.951 423.183 587.269 454.834 571.19 482.723 544.534 511.569 541.976 504.592 539.734 497.622 537.771 490.771 564.602 456.74 598.637 400.135 609.069 323.214ZM620.007 464.597C613.095 462.626 606.113 461.139 599.152 460.153 597.101 459.862 595.005 459.606 592.888 459.387 597.604 450.622 601.816 441.678 605.696 432.443 606.725 434.19 607.747 436.067 608.834 438.131 613.553 447.103 617.303 455.986 620.007 464.597ZM616.642 434.024C614.315 429.605 612.247 425.948 609.722 422.47 612.458 415.419 615.049 408.178 617.562 400.706 618.114 401.416 618.641 402.101 619.139 402.754 623.206 408.097 626.956 413.903 630.289 420.005 640.075 437.916 646.019 457.701 651.156 476.601 644.126 473.253 637.043 470.293 630.021 467.8 630.005 467.496 629.956 467.183 629.871 466.875 626.956 456.225 622.504 445.173 616.642 434.024ZM660.363 476.857C654.926 456.683 648.723 435.346 638.032 415.776 634.489 409.285 630.491 403.107 626.161 397.41 624.637 395.412 622.829 393.089 620.81 390.802 622.594 385.276 624.925 378.514 627.39 371.37 627.406 371.322 627.422 371.277 627.438 371.232 628.638 372.988 629.859 374.849 631.128 376.868 636.208 384.919 641.048 393.855 646.364 404.984 659.451 432.378 666.971 461.747 673.251 488.553 668.743 485.817 664.153 483.222 659.523 480.793 660.387 479.731 660.748 478.28 660.363 476.857ZM638.62 347.892C647.146 357.821 654.079 366.854 659.819 375.514 686.399 415.59 698.971 461.795 694.669 503.071 691.163 500.42 687.567 497.85 683.893 495.368 677.062 465.846 669.274 432.479 654.326 401.181 648.857 389.736 643.858 380.516 638.592 372.161 636.719 369.189 634.947 366.529 633.175 364.032 632.34 362.852 631.586 361.904 630.905 361.145 632.725 355.818 634.533 350.434 636.212 345.225 637.306 346.425 638.288 347.503 638.62 347.892ZM528.041 328.051C531.277 326.425 534.321 325.087 537.111 323.989 536.855 324.787 536.596 325.606 536.336 326.437 533.948 334.027 530.879 343.785 523.748 353.382 524.66 345.966 526.067 338.373 528.151 330.698 528.394 329.79 528.337 328.874 528.041 328.051ZM724.938 423.09C717.945 394.998 699.709 364.94 676.154 342.695 649.38 317.413 618.876 304.897 590.265 307.484 587.837 307.699 586.049 309.843 586.268 312.268 586.487 314.696 588.64 316.484 591.056 316.269 594.583 315.953 598.082 315.88 601.56 316.042 601.467 316.204 601.386 316.383 601.313 316.565 600.94 317.494 600.786 318.637 600.324 322.03 590.679 393.158 560.321 446.458 534.897 480.06 533.202 473.297 531.771 466.729 530.563 460.47 531.524 459.687 532.424 458.297 533.823 456.136 534.982 454.34 536.879 451.34 539.32 447.269 543.419 440.43 549.683 429.491 556.226 416.246 567.704 393.016 582.043 358.486 585.177 325.918 585.408 323.49 583.633 321.337 581.208 321.102 578.764 320.863 576.627 322.647 576.396 325.071 571.628 374.585 539.559 430.124 528.39 448.137 526.72 437.685 525.694 428.531 525.061 421.407 526.213 421.156 527.263 420.451 527.916 419.356 542.215 395.387 553.745 371.812 562.178 349.287 562.543 348.314 564.594 342.496 566.459 336.755 570.412 324.589 570.448 322.995 568.892 320.907 567.432 318.957 564.671 318.556 562.717 320.015 561.416 320.988 560.803 322.541 560.974 324.049 560.414 327.418 555.221 342.711 553.915 346.193 546.378 366.323 536.296 387.344 523.91 408.758 522.848 396.847 521.85 382.961 522.532 368.009 536.778 354.436 541.574 339.184 544.753 329.085 545.535 326.583 546.216 324.422 546.922 322.602 547.173 321.957 547.262 321.284 547.206 320.64 551.511 319.48 554.114 319.164 554.28 319.144 556.701 318.896 558.464 316.732 558.213 314.307 557.965 311.887 555.8 310.119 553.376 310.37 551.268 310.585 501.312 316.354 465.541 376.779 450.699 401.858 442.737 430.72 442.518 460.251 442.299 490.134 450.063 517.975 464.962 540.759 489.072 577.616 529.01 597.182 578.999 597.182 582.773 597.182 586.604 597.072 590.488 596.845 591.445 597.113 592.471 597.048 593.383 596.659 597.064 596.395 600.794 596.034 604.573 595.572 647.276 590.326 683.249 569.329 705.863 536.442 728.251 503.878 735.025 463.624 724.938 423.09" fill="#E6A8D2" transform="matrix(1 0 0 1.00055 895.237 279)"/></g><g clip-path="url(#clip5)"><path d="M510.904 114.329C511.135 112.959 514.618 112.407 518.668 113.096 522.722 113.786 525.824 115.46 525.588 116.83 525.357 118.201 521.875 118.752 517.825 118.063 513.77 117.374 510.669 115.699 510.904 114.329ZM490.986 149.815C480.125 152.743 471.769 155.066 463.9 157.352 463.677 157.417 463.454 157.445 463.235 157.445 462.205 157.445 461.26 156.772 460.956 155.735 460.591 154.478 461.317 153.16 462.574 152.795 470.48 150.501 478.86 148.169 489.749 145.234 492.713 144.435 495.904 143.584 499.179 142.781 500.452 142.469 501.738 143.248 502.05 144.521 502.362 145.794 501.583 147.079 500.31 147.391 497.079 148.182 493.921 149.025 490.986 149.815ZM452.694 123.228C452.73 121.91 453.845 120.848 455.151 120.913 465.72 121.229 476.387 122.336 486.34 123.483 490.033 123.909 493.848 124.351 497.627 125.202 498.912 125.494 499.719 126.771 499.427 128.056 499.175 129.167 498.194 129.921 497.099 129.921 496.925 129.921 496.751 129.901 496.572 129.861 493.049 129.066 489.36 128.64 485.792 128.227 475.945 127.092 465.4 125.997 455.009 125.685 453.687 125.644 452.653 124.545 452.694 123.228ZM484.852 139.21C470.488 140.296 458.799 141.602 448.06 143.329 447.934 143.349 447.804 143.361 447.679 143.361 446.527 143.361 445.514 142.522 445.327 141.35 445.116 140.049 446 138.824 447.302 138.614 458.175 136.866 469.993 135.545 484.491 134.45 487.832 134.199 491.432 133.984 495.822 133.777L497.845 133.688C498.608 133.655 499.366 133.623 500.128 133.586 501.47 133.526 502.565 134.539 502.625 135.857 502.69 137.17 501.677 138.289 500.359 138.354 499.589 138.395 498.818 138.423 498.048 138.46L496.045 138.545C491.699 138.751 488.144 138.962 484.852 139.21ZM584.569 297.227C584.529 297.555 583.329 299.067 578.184 300.393 577.531 300.563 576.947 300.867 576.461 301.273 571.101 297.64 564.298 293.258 556.161 288.044 542.957 279.583 529.302 270.83 523.817 265.981 509.416 253.251 503.59 235.193 497.42 216.073 491.817 198.717 486.023 180.765 473.273 166.515 471.647 164.698 468.858 164.548 467.046 166.17 465.229 167.796 465.075 170.585 466.697 172.397 478.203 185.253 483.457 201.539 489.023 218.786 495.287 238.189 501.762 258.258 517.975 272.589 523.971 277.892 537.913 286.828 551.402 295.471 564.335 303.762 580.434 314.08 582.814 317.23 583.276 317.838 583.41 319.038 583.247 320.003 577.949 318.596 564.489 312.56 559.705 310.411 556.583 309.012 554.913 308.266 554.069 307.954 545.122 304.67 535.671 301.966 526.533 299.347 500.833 291.985 476.561 285.032 459.659 265.944 452.171 257.491 444.48 248.033 436.144 237.034 433.712 233.819 431.62 230.948 429.751 228.26L429.293 227.604C428.158 225.974 426.978 224.291 426.272 222.71 426.195 222.507 426.106 222.313 426.001 222.118 424.857 220.047 422.271 219.232 420.155 220.29 418.63 221.052 416.854 223.282 418.204 226.278 419.255 228.637 420.746 230.774 422.064 232.655L422.506 233.292C424.444 236.085 426.605 239.049 429.114 242.361 437.584 253.543 445.416 263.171 453.055 271.795 453.472 272.265 453.89 272.731 454.315 273.185 451.887 278.577 450.999 286.414 449.783 297.146 447.289 319.144 443.523 352.396 423.053 395.043 416.875 407.911 406.143 422.084 394.783 437.089 369.773 470.115 341.43 507.547 353.102 544.364 357.687 558.817 379.734 580.677 380.671 581.602 381.064 581.991 381.53 582.303 382.045 582.522 387.948 585.027 389.444 586.807 389.78 587.342 389.144 588.299 385.896 590.865 376.851 593.241 370.271 594.968 364.45 595.58 362.037 595.528 358.283 590.399 343.984 570.015 335.093 557.345 329.328 549.123 325.16 543.184 324.37 542.101 311.684 524.713 309.041 521.096 310.342 498.518 310.626 493.641 310.946 488.444 311.518 483.25 311.566 482.792 311.692 481.827 311.842 480.676 312.045 479.123 312.288 477.246 312.462 475.746 312.544 475.036 312.625 474.347 312.661 473.69 320.603 468.311 328.846 463.121 336.808 458.11 352.113 448.473 366.57 439.367 375.769 430.756 377.549 429.094 377.642 426.301 375.98 424.521 374.314 422.745 371.524 422.652 369.744 424.314 361.158 432.35 347.045 441.236 332.105 450.642 300.94 470.269 265.62 492.51 257.609 520.042 252.274 538.371 256.162 566.11 266.277 581.877 269.63 587.111 273.643 591.498 277.523 595.747 279.542 597.952 281.484 600.077 283.313 602.278 271.904 605.189 267.659 603.583 265.247 601.747 261.241 598.69 258.987 591.583 256.133 582.587 253.534 574.405 250.303 564.221 244.53 553.027 241.757 547.656 229.505 519.211 226.168 511.447 229.748 504.847 233.507 498.223 237.155 491.801 241.424 484.28 245.811 476.549 249.975 468.744 250.733 469.312 251.479 469.843 252.209 470.342 254.224 471.716 256.968 471.197 258.339 469.186 259.713 467.171 259.194 464.431 257.183 463.056 241.112 452.09 217.817 423.341 232.457 385.15 233.328 382.876 232.189 380.326 229.915 379.454 227.64 378.587 225.09 379.722 224.218 381.996 223.631 383.529 223.095 385.049 222.613 386.557 216.333 386.188 208.488 390.616 197.955 396.583 173.699 410.327 137.041 431.093 95.4565 405.13 67.0932 387.413 74.8611 353.224 82.3735 320.157 85.7629 305.238 88.9657 291.145 88.5359 279.238 88.0089 264.793 82.106 255.46 70.4825 250.717 47.9006 241.493 38.2353 259.668 31.181 272.938 25.5334 283.552 22.3752 288.405 17.7696 287.018 10.4639 284.825 7.74355 280.625 9.21118 273.81 12.9086 256.64 43.149 230.239 67.5919 233.486 82.1181 235.416 91.9212 240.115 97.5647 247.842 107.672 261.696 103.504 284.922 99.4742 307.387 94.9903 332.361 90.3563 358.182 103.804 375.347 112.302 386.196 126.804 392.136 148.133 393.51 166.353 394.682 192.218 393.835 211.971 383.148 223.768 376.766 228.439 368.35 232.955 360.209 235.931 354.845 238.745 349.777 243.63 344.864 261.696 326.713 280.844 309.276 299.359 292.414 305.513 286.807 311.676 281.196 317.826 275.537 323.899 269.946 329.79 263.342 336.917 254.122 349.761 237.516 358.993 218.632 366.639 202.232 368.804 197.59 371.451 191.574 374.516 184.609 389.874 149.718 415.581 91.3171 447.066 52.867 457.534 40.08 479.723 20.5022 489.644 12.0897 492.83 23.7334 495.235 41.2516 493.901 53.9778 493.726 55.6644 494.529 57.3023 495.972 58.1942 503.838 63.0471 525.382 77.2085 530.526 84.3277 533.806 88.8725 533.389 94.4308 532.902 100.873 532.659 104.064 532.412 107.364 532.647 110.672 532.943 114.787 534.706 118.083 536.263 120.99 537.617 123.528 538.793 125.717 538.943 128.146 539 129.078 539.024 129.986 539.028 130.882 538.546 130.988 538.092 131.255 537.779 131.673 537.694 131.79 537.617 131.912 537.561 132.042 537.451 132.224 537.321 132.447 537.265 132.569 537.131 132.853 536.944 133.153 536.713 133.465 535.854 134.616 534.727 135.691 533.847 136.493 530.368 139.668 526.371 142.202 521.964 144.034 520.914 144.468 520.419 145.672 520.853 146.722 521.182 147.513 521.948 147.991 522.755 147.991 523.018 147.991 523.286 147.938 523.541 147.833 528.386 145.818 532.789 143.029 536.62 139.534 537.179 139.019 537.832 138.399 538.485 137.714 537.435 143.706 534.897 148.692 530.871 152.597 518.372 164.707 495.162 163.961 485.764 163.077 483.315 162.842 481.187 164.63 480.956 167.054 480.729 169.478 482.508 171.631 484.937 171.858 486.1 171.968 487.357 172.069 488.683 172.15 490.353 176.046 493.066 181.26 495.932 186.761 499.382 193.39 502.95 200.246 505.009 205.362 507.028 210.377 508.739 215.518 510.393 220.488 515.652 236.304 521.096 252.655 536.709 264.461 538.14 265.543 540.999 267.084 546.35 269.942 553.79 273.911 563.974 279.348 572.192 284.963 584.845 293.606 584.573 297.19 584.569 297.227ZM503.225 39.2691C505.585 35.5149 509.469 32.0324 513.223 28.6633 513.945 28.0146 514.674 27.3619 515.396 26.697 515.652 30.7269 515.676 36.1068 515.696 40.5097 515.729 47.5965 515.761 54.817 516.337 61.0443 510.9 57.2415 505.832 53.9738 502.913 52.1291 503.177 48.156 503.148 43.9355 502.917 39.6705 503.019 39.5367 503.136 39.4151 503.225 39.2691ZM593.33 298.273C594.705 286.763 573.858 274.62 550.506 262.158 546.804 260.183 542.977 258.14 542.028 257.422 528.601 247.271 524.04 233.567 518.761 217.703 517.067 212.607 515.311 207.337 513.195 202.07 510.973 196.552 507.304 189.506 503.757 182.687 501.815 178.957 499.941 175.361 498.466 172.312 511.208 171.931 526.586 169.032 537.009 158.929 544.951 151.234 548.568 140.689 547.749 127.594 547.477 123.248 545.653 119.839 544.039 116.826 542.734 114.386 541.607 112.281 541.445 110.04 541.254 107.384 541.469 104.546 541.696 101.538 542.235 94.4065 542.847 86.3183 537.678 79.1626 535.469 76.1057 531.337 72.3759 526.606 68.6338 524.624 62.7025 524.563 50.4385 524.518 40.4692 524.445 25.1686 524.275 18.2723 520.914 15.1749 520.05 14.3803 518.814 13.9343 517.638 13.983 515.587 14.0722 514.204 15.4182 512.733 17.0358L512.716 17.0601C511.099 18.7143 509.27 20.3562 507.332 22.0955 505.435 23.7982 503.513 25.5334 501.697 27.3538 500.663 20.0157 499.175 13.1357 497.598 7.81653L497.424 7.1638C497.25 6.49485 496.994 5.51373 496.771 4.69478 496.362 3.1785 495.401-0.377042 491.557 0.0324337 490.11 0.206765 489.992 0.218928 483.425 5.79347 480.996 7.85707 476.022 12.1262 469.997 17.5466 460.595 26.0118 447.8 38.0407 440.239 47.2762 407.992 86.6589 381.98 145.749 366.444 181.057 363.4 187.974 360.768 193.946 358.644 198.502 351.2 214.472 342.224 232.838 329.94 248.726 323.125 257.536 317.546 263.804 311.85 269.046 305.712 274.693 299.562 280.296 293.416 285.891 274.823 302.826 255.598 320.336 237.378 338.641 231.625 344.422 228.232 350.536 225.24 355.928 220.983 363.606 217.306 370.235 207.774 375.392 188.922 385.588 162.671 385.6 148.696 384.704 130.023 383.504 117.609 378.664 110.749 369.907 99.7377 355.851 104.019 332.004 108.158 308.943 112.517 284.655 117.021 259.539 104.688 242.641 97.5525 232.862 85.7994 227.008 68.7554 224.741 40.7854 221.016 5.51373 249.071 0.587861 271.953-1.86899 283.361 3.46635 291.932 15.2317 295.467 27.2646 299.088 33.4838 287.391 38.9691 277.077 47.0451 261.894 52.9683 253.092 67.1459 258.882 84.3034 265.892 81.0965 285.968 73.7705 318.203 65.958 352.595 57.0996 391.576 90.786 412.61 106.808 422.62 122.218 426.329 136.534 426.325 163.352 426.325 186.34 413.303 202.305 404.258 209.161 400.374 216.211 396.377 220.302 395.513 214.436 425.543 228.767 449.248 243.087 462.906 238.72 471.177 234.03 479.435 229.485 487.442 225.467 494.517 221.312 501.835 217.387 509.141 216.755 510.324 216.69 511.731 217.221 512.964 217.878 514.5 233.344 550.591 236.689 557.073 242.122 567.602 245.098 576.98 247.725 585.254 252.582 600.575 256.397 612.608 272.845 612.608 277.681 612.608 283.613 611.566 290.979 609.263 292.564 608.765 293.764 607.593 294.267 606.052 294.681 604.788 294.782 602.748 292.917 600.227 290.124 596.448 287.03 593.063 284.038 589.791 280.24 585.64 276.652 581.715 273.7 577.118 264.935 563.447 261.444 538.436 266.078 522.507 270.485 507.369 285.251 493.402 302.971 480.481 302.866 481.284 302.785 481.933 302.749 482.289 302.153 487.694 301.824 493.017 301.536 498.012 300.105 522.799 303.336 528.24 317.242 547.303 317.984 548.316 322.566 554.848 327.872 562.413 356.147 602.712 356.147 602.712 357.476 603.433 362.625 606.211 384.477 601.755 392.898 596.201 398.055 592.795 398.866 589.11 398.639 586.617 398.104 580.73 391.548 577.049 386.282 574.742 379.929 568.381 364.673 551.665 361.51 541.7 351.221 509.234 378.1 473.735 401.813 442.416 413.453 427.047 424.444 412.529 431.008 398.858 452.122 354.87 455.99 320.729 458.548 298.135 459.407 290.566 460.125 284.221 461.305 279.858 479.099 294.936 501.928 301.475 524.105 307.828 533.089 310.403 542.385 313.066 551.029 316.237 551.621 316.456 553.794 317.429 556.092 318.463 581.456 329.839 585.623 330.621 588.741 327.698 592.807 323.887 593.326 316.509 589.852 311.911 588.94 310.703 587.314 309.207 585.015 307.407 590.067 305.274 592.856 302.217 593.33 298.273" fill="#6064B8" fill-rule="evenodd" transform="matrix(1 0 0 1.00055 895.237 279)"/></g><path d="M514.346 34.7568C512.481 34.2987 508.172 47.7546 507.669 49.0195 506.12 52.9237 507.559 53.0981 508.808 54.4684 510.105 55.8874 515.907 59.8402 515.449 57.5293 514.293 51.7237 516.621 35.3163 514.346 34.7568ZM488.598 23.0158C485.748 22.0063 473.297 46.1329 473.658 51.9629 474.019 57.7928 490.341 58.7496 490.763 57.9996 491.752 56.2441 491.448 24.0212 488.598 23.0158ZM540.658 123.872C540.97 124.018 541.566 124.691 541.663 124.618 541.53 125.891 539.709 141.277 531.358 125.202 529.866 122.328 536.296 122.551 538.193 123.013 539.036 123.22 539.871 123.508 540.658 123.872" fill="#E6A8D2" transform="matrix(1 0 0 1.00055 895.237 279)"/></g></g></g></g></svg>