<svg width="852" height="609" xmlns="http://www.w3.org/2000/svg" xmlns:xlink="http://www.w3.org/1999/xlink" overflow="hidden"><defs><clipPath id="clip0"><rect x="918" y="282" width="852" height="609"/></clipPath><clipPath id="clip1"><rect x="918" y="282" width="851" height="608"/></clipPath><clipPath id="clip2"><rect x="918" y="282" width="851" height="609"/></clipPath><clipPath id="clip3"><rect x="918" y="282" width="851" height="609"/></clipPath><clipPath id="clip4"><rect x="1465.83" y="578.816" width="303.242" height="311.144"/></clipPath></defs><g clip-path="url(#clip0)" transform="translate(-918 -282)"><g clip-path="url(#clip1)"><g clip-path="url(#clip2)"><g clip-path="url(#clip3)"><path d="M393.498 377.025C417.386 335.675 416.46 349.387 426.241 351.346 450.033 356.114 502.974 355.856 518.28 353.543 519.141 353.412 527.968 344.974 528.608 345.996 529.665 347.683 509.725 381.4 508.31 384.055 500.148 399.364 499.545 416.88 493.008 433.002 485.213 452.212 482.087 474.92 463.253 485.458 452.257 491.606 352.816 474.083 358.125 437.333 361.467 414.178 382.137 396.689 393.498 377.025" fill="#E6A8D2" fill-rule="evenodd" transform="matrix(1 0 0 1.00024 919.41 282.623)"/><path d="M446.04 133.489C444.938 134.174 449.52 141.579 450.043 142.536 450.45 143.283 450.856 144.03 451.276 144.77 451.527 145.218 452.181 146.543 452.147 146.034L454.684 145.252C456.543 144.457 458.364 143.551 460.065 142.467 475.168 132.831 448.298 132.081 446.04 133.489ZM461.58 17.6952C455.937 21.1275 452.415 49.0611 457.352 51.2162 462.289 53.3713 490.498 36.2132 491.204 30.6258 491.906 25.0384 467.222 14.2629 461.58 17.6952ZM604.267 97.451C598.284 99.5579 566.87 67.0249 571.428 60.0191 577.001 51.4469 602.608 44.3309 607.317 47.3949 615.056 52.4281 610.247 95.3475 604.267 97.451" fill="#F48DCC" fill-rule="evenodd" transform="matrix(1 0 0 1.00024 919.41 282.623)"/><path d="M424.774 447.815C402.37 439.322 378.942 433.263 357.529 421.503M424.774 456.886C424.909 456.89 423.036 457.2 422.702 457.2 421.129 457.203 419.552 457.189 417.979 457.152 412.618 457.017 407.265 456.642 401.929 456.139 387.022 454.742 370.859 453.182 356.617 448.256M423.976 467.717C424.165 467.435 423.955 467.91 422.74 468.113 421.173 468.375 419.603 468.595 418.03 468.815 413.331 469.473 408.621 470.02 403.895 470.433 388.744 471.762 371.131 474.489 356.007 471.573M532.515 434.423C532.174 434.585 534.581 434.64 534.698 434.626 536.619 434.413 538.53 434.076 540.43 433.738 545.732 432.795 550.964 431.535 556.156 430.116 571.913 425.81 587.457 420.281 602.639 414.27M534.495 447.23C537.679 448.001 542.654 450.524 546.458 451.437 563.706 455.571 581.353 458.081 598.993 459.775M535.672 459.341C534.739 459.782 537.321 460.591 538.213 461.111 539.707 461.982 541.253 462.767 542.805 463.531 547.721 465.954 552.755 468.147 557.805 470.275 572.519 476.485 587.556 481.932 602.845 486.572M452.612 456.601C453.434 455.293 453.761 450.896 454.753 448.955 457.28 444.001 461.328 440.083 465.329 436.32M452.136 458.849C452.054 458.907 451.427 457.386 451.265 457.086 450.401 455.454 449.31 453.953 448.167 452.507 444.724 448.149 440.789 444.083 436.18 440.95M251.743 141.247C246.459 140.246 241.095 139.595 235.735 139.151 218.419 137.726 200.861 138.793 183.634 140.786 129.953 146.993 63.238 163.363 18.2908 122.726 9.994 115.225 2.56133 105.1 3.90396 93.3396 9.18498 47.1015 130.669 14.596 146.874 46.4887 152.172 56.913 127.22 62.077 121.477 63.0753 96.2908 67.4544 22.3152 65.3957 28.1092 100.693 39.1119 167.739 190.037 111.276 240.72 117.066M360.28 87.1429C360.338 87.1188 356.717 83.5969 356.011 82.9497 351.508 78.8151 346.902 74.7769 342.292 70.7593 334.952 64.3629 280.892 28.098 293.551 16.0626 300.663 9.30465 354.389 21.5674 365.96 22.4005 435.749 27.4302 512.094 18.3209 572.898 59.3745M317.192 106.167C321.371 102.569 331.317 99.3333 336.963 97.1265 375.603 82.0374 418.416 78.5948 458.96 87.525M398.042 276.912C398.049 276.977 394.193 272.006 391.253 268.643 386.609 263.334 381.734 258.249 376.718 253.288 360.042 236.784 342.798 220.752 324.693 205.821 304.987 189.572 279.061 175.732 263.015 155.579 245.137 133.123 238.148 102.149 223.765 77.3623 216.628 65.0583 208.118 53.7802 197.587 44.1821 195.825 42.5709 190.874 39.7755 191.325 36.8011 192.626 28.2151 229.952 29.4063 235.491 29.7677 270.52 32.0364 299.328 46.2339 327.795 65.9086 336.143 71.6819 346.234 82.9153 356.396 85.4215M634.104 336.917C616.895 332.531 600.597 323.818 585.938 314.006 575.931 307.307 566.622 299.802 558.297 291.078 544.816 276.946 492.88 212.917 495.201 191.304 495.393 189.493 505.549 192.36 516.001 193.421 543.27 196.189 539.917 186.25 558.92 206.079M438.662 303.751C438.424 303.541 439.65 304.005 439.684 304.016 444.401 305.479 449.203 306.553 454.013 307.655 463.841 309.91 473.684 312.13 483.582 314.065 510.72 319.363 560.008 329.254 586.575 317.132M451.372 324.971C453.534 322.069 462.919 315.005 466.716 310.777M436.448 376.759C419.411 356.127 385.604 310.151 396.352 281.9 402.142 266.684 416.03 260.439 430.437 255.757 467.649 243.677 507.956 246.592 540.702 270.505M558.339 554.183C563.847 562.49 587.157 569.705 596.259 573.265 616.733 581.28 619.835 575.599 624.276 554.344 628.069 536.184 627.849 499.338 627.849 499.338 630.923 473.583 641.207 447.171 643.444 421.234 643.444 421.234 700.826 339.468 668.286 304.023M590.221 572.208C572.085 578.013 555.953 578.384 545.687 579.197 517.602 581.421 489.086 575.899 465.983 559.047 428.733 531.874 428.523 497.427 419.72 456.783 417.29 445.574 409.434 432.223 411.207 420.625 413.596 404.995 431.439 383.059 445.737 375.217M446.628 544.512C444.631 553.611 450.03 596.741 456.901 603.282 457.565 603.915 459.679 602.576 460.282 602.314 474.507 596.197 494.725 589.139 506.73 579.045" stroke="#6064B8" stroke-width="7.4912" stroke-linecap="round" stroke-linejoin="round" stroke-miterlimit="10" fill="none" transform="matrix(1 0 0 -1.00024 919.41 889.958)"/><g clip-path="url(#clip4)"><path d="M635.853 120.898C639.943 128.754 673.213 156.295 681.923 159.721M644.715 107.923C644.105 107.575 645.661 108.949 646.15 109.448 647.379 110.697 648.667 111.895 649.972 113.066 654.158 116.825 658.561 120.347 662.957 123.848 676.563 134.689 690.949 144.432 705.133 154.474M655.528 95.0128C655.235 94.8131 656.74 96.889 660.392 100.376 664.548 104.349 668.923 108.095 673.268 111.858 686.154 123.012 699.676 133.491 713.261 143.785M666.816 76.8356C666.851 76.7633 671.488 81.7345 671.64 81.8928 675.037 85.487 678.601 88.933 682.226 92.3034 692.819 102.132 706.279 112.994 717.231 122.413M680.315 62.5383C680.312 62.4178 681.516 63.4781 681.575 63.5332 682.925 64.7794 684.26 66.0463 685.599 67.3098 689.125 70.6457 692.688 73.9403 696.251 77.2349 707.385 87.525 714.301 95.987 726.44 105.138M695.504 48.9226C698.465 51.842 707.842 61.206 710.855 64.0703 719.52 72.312 727.81 78.402 735.549 87.5525M710.059 40.7567C716.208 47.6144 734.898 68.2909 742.771 73.2587M771.345 203.673C771.284 203.711 771.979 199.012 772.072 198.568 773.129 193.428 774.399 188.339 775.831 183.289 779.305 171.033 784.582 155.806 789.543 144.074M750.363 224.019C749.822 225.072 750.356 222.38 750.38 222.219 750.776 219.385 751.261 216.559 751.795 213.75 753.192 206.427 754.976 199.177 756.928 191.985 763.148 169.109 771.225 147.313 782.679 126.571M734.468 236.01C735.05 226.209 735.136 212.307 736.461 202.582 740.957 169.525 751.991 131.329 770.454 102.917M721.709 244.744C723.94 239.125 722.219 218.504 722.697 211.55 724.223 189.286 737.49 99.7946 759.892 86.1479M710.09 248.964C709.712 245.319 708.768 238 708.565 234.34 707.877 221.86 708.231 209.285 709.003 196.815 711.695 153.162 719.014 101.027 751.003 67.8021M684.887 245.615C683.999 245.863 686.209 244.313 686.939 243.745 688.23 242.74 689.552 241.787 690.901 240.86 695.229 237.889 700.031 234.633 705.106 233.111M667.739 240.995C667.615 240.878 667.839 240.509 667.904 240.43 672.091 235.197 679.189 231.252 684.753 227.778 690.584 224.136 696.912 220.236 703.629 218.48M651.903 233.328C651.09 234.629 653.397 230.594 654.523 229.555 657.917 226.408 661.57 223.534 665.395 220.931 676.408 213.436 692.705 205.759 705.443 201.707M634.077 225.048C634.111 225.062 635.74 223.544 635.836 223.468 641.207 219.223 646.704 215.171 652.45 211.446 669.818 200.189 688.533 189.964 709.147 186.35M623.202 219.513C646.278 199.349 677.282 178.015 709.574 169.174M609.641 211.126C616.399 204.83 628.775 191.73 636.263 186.322 658.795 170.049 683.882 157.259 711.929 155.183M586.004 195.824C600.28 194.343 608.55 196.523 616.726 198.65M571.751 184.356C578.461 184.274 587.064 183.964 590.813 184.119 603.599 184.649 616.585 185.544 629.006 188.825M556.063 171.636C582.823 169.429 614.557 169.116 639.186 181.523M552.483 160.729C587.03 154.206 627.326 155.49 661.429 168.551M551.622 150.026C551.622 150.026 571.527 143.509 579.16 142.559 601.585 139.771 625.061 141.592 647.1 146.401 655.184 148.167 670.906 152.605 677.31 158.719M583.642 249.849C597.771 261.138 625.973 276.241 642.773 282.93M565.978 220.452C591.873 242.134 636.49 268.501 665.329 275.683M556.397 196.158C583.088 221.661 650.722 256.886 689.424 263.909M552.042 164.138C553.009 164.286 557.289 171.291 558.032 172.138 566.346 181.602 576.206 189.868 586.124 197.583 606.246 213.226 678.683 254.514 706.741 253.164M727.231 304.067C732.595 300.732 744.307 293.963 749.43 290.266 765.927 278.354 788.304 256.776 801.496 241.301M691.479 307.166C701.246 303.899 710.559 299.344 719.506 294.277 752.046 275.848 780.727 247.529 804.336 218.669M659.119 301.134C667.601 298.063 692.381 286.648 698.42 283.315 736.599 262.257 777.838 231.008 802.305 194.051M628.668 288.658C636.717 291.395 671.578 273.621 678.866 269.958 722.542 248.011 772.265 215.591 799.32 173.429M650.763 11.656C618.027 36.5601 566.811 86.8537 556.101 117.903M685.71 5.91364C680.491 6.03757 671.22 13.4324 667.044 15.949 619.693 44.4816 578.058 93.7321 555.251 143.217M692.516 14.9127C656.709 35.0247 591.564 107.506 575.139 142.201M705.522 24.8275C706.255 22.428 634.411 71.9401 601.792 139.936M715.609 31.52C706.376 37.9578 687.751 52.4582 679.713 60.3281 654.95 84.5747 636.201 110.112 622.072 141.502M755.354 15.9903C763.906 23.6742 772.065 35.6856 779.498 44.4437 805.307 74.8629 827.523 110.195 839.988 148.277 840.642 150.278 847.115 177.347 843.965 179.227M711.616 4.44707C717.454 8.54038 725.803 16.3862 731.259 20.9787 748.087 35.1383 763.262 51.4185 776.375 69.0621 813.79 119.407 833.688 175.292 821.973 237.607M679.63 5.07708C682.146 5.97216 684.518 7.24939 686.828 8.58169 692.901 12.0966 698.637 16.2416 704.245 20.4485 723.985 35.2622 740.761 53.3636 755.413 73.1692 796.439 128.634 817.14 200.079 796.649 267.617M698.348 307.235C779.79 307.235 845.913 239.239 845.913 155.49 845.913 71.7405 779.79 3.74477 698.348 3.74477 616.905 3.74477 550.782 71.7405 550.782 155.49 550.782 239.239 616.905 307.235 698.348 307.235Z" stroke="#DC811C" stroke-width="7.4912" stroke-linecap="round" stroke-linejoin="round" stroke-miterlimit="10" fill="none" transform="matrix(1 0 0 -1.00024 919.41 889.958)"/></g><path d="M524.243 125.361C524.243 139.048 513.629 150.165 500.557 150.165 487.947 150.165 477.629 139.823 476.913 126.806 476.207 126.452 475.602 125.88 475.226 125.116 471.932 118.417 463.628 117.184 456.867 118.933 454.261 119.608 452.295 120.551 450.856 121.821 450.536 122.104 450.178 122.303 449.809 122.458 446.504 131.767 437.997 138.401 428.028 138.401 415.197 138.401 404.776 127.402 404.776 113.859 404.776 100.312 415.197 89.3126 428.028 89.3126 440.566 89.3126 450.79 99.8092 451.259 112.922 452.408 112.444 453.648 112.031 454.99 111.683 462.86 109.645 472.307 110.685 478.345 116.74 481.692 107.293 490.377 100.556 500.557 100.556 513.629 100.556 524.243 111.669 524.243 125.361" fill="#100F0D" transform="matrix(1 0 0 1.00024 919.41 282.623)"/><path d="M337.668 18.7719C340.46 20.6895 343.335 22.4831 346.313 24.0977 355.515 29.0792 365.743 33.6614 376.133 35.4894M247.024 32.8902C253.792 44.4782 269.222 53.1089 281.319 57.8563M296.333 16.517C310.596 28.7005 327.22 37.104 345.821 40.1611M213.626 32.4874C223.731 45.3905 237.291 57.4225 252.143 64.6658M531.603 194.667C530.536 202.179 552.025 222.573 557.991 227.937M509.89 192.856C509.35 193.576 514.603 202.206 516.634 205.546 524.164 217.922 533.145 229.572 544.014 239.191" stroke="#6064B8" stroke-width="7.4912" stroke-linecap="round" stroke-linejoin="round" stroke-miterlimit="10" fill="none" transform="matrix(1 0 0 -1.00024 919.41 889.958)"/></g></g></g></g></svg>