<svg width="723" height="473" xmlns="http://www.w3.org/2000/svg" xmlns:xlink="http://www.w3.org/1999/xlink" overflow="hidden"><defs><clipPath id="clip0"><rect x="87" y="184" width="723" height="473"/></clipPath></defs><g clip-path="url(#clip0)" transform="translate(-87 -184)"><path d="M481.106 560.204C479.974 559.191 478.893 558.055 477.876 556.803 465.656 541.752 462.121 504.714 475.418 482.942 476.062 481.886 477.44 481.554 478.495 482.199 479.549 482.845 479.884 484.221 479.239 485.277 466.092 506.802 471.458 541.794 481.352 553.98 485.042 558.524 489.641 561.201 494.301 561.519 497.858 561.761 501.24 560.559 503.826 558.137 508.627 553.637 506.102 544.562 503.178 534.054 499.742 521.7 495.847 507.7 502.585 495.995 508.217 486.212 519.706 478.133 531.853 475.413 539.443 473.714 546.064 474.475 550.496 477.559 558.248 482.959 562.554 495.187 562.004 510.279 561.938 512.081 561.79 513.972 561.553 515.913 565.995 524.456 567.725 535.793 566.943 544.37 565.886 555.959 560.256 566.553 550.206 575.859 545.843 579.899 541.493 582.889 538.235 584.868 570.722 594.376 585.037 602.364 584.491 610.583 584.197 615.015 579.927 617.455 575.797 619.815 572.57 621.659 569.233 623.566 569.017 625.848 568.773 628.42 571.506 633.507 578.146 639.089 587.657 647.073 602.487 653.687 614.178 650.467 632.785 645.343 648.034 612.457 641.344 566.293 641.167 565.069 642.016 563.933 643.238 563.756 644.461 563.578 645.599 564.426 645.775 565.651 648.941 587.497 647.444 608.61 641.561 625.1 635.827 641.169 626.524 651.712 615.367 654.784 606.514 657.223 590.7 655.473 575.266 642.52 568.01 636.427 564.106 630.198 564.558 625.425 564.993 620.83 569.552 618.225 573.574 615.926 576.677 614.153 579.885 612.319 580.02 610.285 580.198 607.616 575.855 600.07 531.801 587.681 530.907 587.428 530.26 586.65 530.177 585.725 530.094 584.8 530.593 583.919 531.428 583.512 534.368 582.082 560.215 568.827 562.482 543.963 563.071 537.496 562.158 530.27 560.074 524.008 557.466 534.659 552.087 545.379 542.879 550.836 537.365 554.104 527.014 557.161 521.1 552.19 518.319 549.858 516.65 546.072 516.261 541.247 515.554 532.472 519.208 521.781 525.354 514.645 528.711 510.749 537.602 501.909 547.687 503.88 551.565 504.639 554.84 506.829 557.534 509.912 557.976 496.643 554.31 485.661 547.936 481.233 544.595 478.908 539.089 478.379 532.83 479.781 522.018 482.202 511.422 489.615 506.464 498.228 500.662 508.306 504.29 521.347 507.49 532.852 510.666 544.267 513.666 555.049 506.885 561.404 503.383 564.686 498.805 566.313 493.995 565.985 489.426 565.676 484.966 563.656 481.106 560.204ZM552.52 511.273C550.795 509.731 548.889 508.679 546.832 508.278 538.833 506.714 530.971 514.992 528.753 517.567 523.334 523.857 520.111 533.229 520.729 540.889 521.02 544.494 522.147 547.214 523.985 548.763 527.509 551.726 535.2 550.185 540.599 546.985 548.936 542.043 555.024 530.62 556.94 516.9 555.649 514.668 554.167 512.746 552.52 511.273Z" fill="#737373" fill-rule="evenodd"/><path d="M384.669 360.095C386.302 358.191 391.164 359.352 392.929 357.639 394.726 355.895 393.714 351.002 395.632 349.456 397.579 347.888 402.145 349.921 404.202 348.558 406.283 347.179 406.192 342.183 408.371 341.016 410.568 339.838 414.679 342.681 416.959 341.72 419.253 340.752 420.087 335.825 422.448 335.078 424.82 334.328 428.338 337.879 430.76 337.351 433.188 336.823 434.912 332.132 437.375 331.828 439.84 331.525 442.649 335.659 445.131 335.583 447.611 335.508 450.162 331.21 452.643 331.363 455.117 331.515 457.123 336.092 459.581 336.473 462.029 336.851 465.326 333.095 467.741 333.701 470.141 334.304 471.269 339.171 473.619 340.001 475.95 340.823 479.883 337.739 482.15 338.784 484.391 339.818 484.599 344.81 486.762 346.063 488.894 347.299 493.329 344.994 495.37 346.444 497.376 347.869 496.664 352.814 498.568 354.447 500.472 356.08 505.252 354.623 506.965 356.388 508.709 358.185 507.107 362.92 508.653 364.839 510.221 366.786 515.187 366.231 516.55 368.288 517.928 370.369 515.48 374.727 516.647 376.905 517.824 379.102 522.807 379.476 523.768 381.756 524.736 384.05 521.524 387.88 522.272 390.242 523.022 392.614 527.852 393.899 528.379 396.321 528.907 398.749 525.049 401.926 525.352 404.389 525.655 406.854 530.168 409 530.244 411.482 530.32 413.963 525.946 416.381 525.793 418.861 525.641 421.335 529.686 424.271 529.305 426.73 528.927 429.177 524.184 430.752 523.578 433.167 522.975 435.567 526.41 439.197 525.581 441.548 524.76 443.879 519.808 444.55 518.763 446.816 517.73 449.057 520.435 453.26 519.182 455.423 517.946 457.555 512.956 457.3 511.507 459.341 510.082 461.346 511.97 465.974 510.338 467.878 508.705 469.782 503.842 468.62 502.078 470.334 500.281 472.078 501.293 476.971 499.374 478.517 497.427 480.085 492.862 478.052 490.804 479.415 488.724 480.794 488.814 485.789 486.636 486.957 484.439 488.135 480.328 485.292 478.048 486.253 475.754 487.221 474.92 492.148 472.558 492.895 470.187 493.644 466.669 490.094 464.247 490.622 461.818 491.15 460.095 495.841 457.632 496.144 455.167 496.447 452.358 492.314 449.876 492.39 447.396 492.465 444.845 496.763 442.364 496.61 439.89 496.458 437.884 491.881 435.425 491.5 432.978 491.121 429.681 494.878 427.266 494.272 424.867 493.669 423.738 488.801 421.388 487.972 419.057 487.15 415.123 490.234 412.857 489.189 410.616 488.155 410.407 483.163 408.245 481.91 406.113 480.674 401.677 482.979 399.636 481.529 397.631 480.104 398.343 475.159 396.439 473.525 394.535 471.892 389.756 473.349 388.042 471.584 386.299 469.787 387.9 465.052 386.354 463.133 384.786 461.186 379.821 461.741 378.458 459.684 377.079 457.603 379.528 453.245 378.361 451.067 377.183 448.87 372.2 448.497 371.239 446.216 370.271 443.922 373.483 440.092 372.736 437.73 371.985 435.358 367.156 434.074 366.628 431.651 366.1 429.223 369.959 426.046 369.656 423.584 369.353 421.118 364.839 418.972 364.764 416.49 364.688 414.009 369.062 411.591 369.214 409.111 369.366 406.637 365.321 403.7 365.702 401.242 366.081 398.795 370.824 397.221 371.43 394.805 372.032 392.406 368.597 388.776 369.426 386.424 370.248 384.093 375.199 383.422 376.244 381.156 377.278 378.915 374.573 374.712 375.826 372.549 377.062 370.418 382.051 370.672 383.501 368.632 384.924 366.628 383.036 362 384.669 360.095Z" fill="#505050" fill-rule="evenodd"/><path d="M405.57 358.148C410.693 359.907 415.726 362.021 420.638 364.484 431.418 368.157 442.724 370.256 454.275 370.685 455.061 368.978 455.888 367.288 456.754 365.614 436.411 365.263 416.79 359.507 399.578 348.907 399.576 348.906 399.575 348.906 399.574 348.906 398.037 348.779 396.546 348.721 395.632 349.457 395.015 349.953 394.703 350.799 394.501 351.771 394.5 351.775 394.501 351.779 394.505 351.781 398.093 354.109 401.785 356.236 405.57 358.148Z" fill="#737373" fill-rule="evenodd"/><path d="M459.178 361.156C460.181 359.4 461.231 357.663 462.325 355.951 442.824 356.611 423.879 351.86 407.23 342.27 407.226 342.268 407.22 342.269 407.217 342.273 406.452 343.641 406.069 345.656 405.348 347.112 405.345 347.116 405.347 347.121 405.352 347.124 421.711 356.389 440.148 361.23 459.178 361.156Z" fill="#737373" fill-rule="evenodd"/><path d="M416.174 341.917C431.361 349.174 448.214 352.446 465.433 351.311 466.753 349.436 468.134 347.595 469.566 345.783 468.422 345.912 467.276 346.028 466.122 346.116 450.001 347.351 434.193 344.502 419.88 337.971 419.876 337.969 419.871 337.971 419.868 337.975 419.011 339.524 418.198 341.197 416.96 341.72 416.72 341.821 416.456 341.874 416.178 341.9 416.159 341.901 416.158 341.909 416.174 341.917Z" fill="#737373" fill-rule="evenodd"/><path d="M473.841 340.676C473.996 340.5 474.151 340.323 474.306 340.148 474.311 340.142 474.308 340.133 474.3 340.132 474.065 340.116 473.838 340.083 473.628 340.008 472.237 339.518 471.274 337.618 470.223 336.02 470.221 336.017 470.218 336.015 470.214 336.016 468.618 336.228 467.013 336.41 465.395 336.534 455.002 337.33 444.744 336.203 435.033 333.354 435.029 333.354 435.025 333.354 435.023 333.357 433.722 334.774 432.511 336.726 431.058 337.256 430.971 337.288 430.713 337.34 430.606 337.359 430.586 337.363 430.585 337.371 430.605 337.377 441.776 341.086 453.698 342.584 465.788 341.658 468.501 341.451 471.188 341.118 473.841 340.676Z" fill="#737373" fill-rule="evenodd"/><path d="M452.641 331.349C452.071 331.314 451.484 331.518 450.907 331.851 450.899 331.856 450.902 331.868 450.911 331.869 452.052 331.982 453.209 332.075 454.359 332.138 454.368 332.139 454.373 332.127 454.365 332.121 453.81 331.685 453.239 331.386 452.641 331.349Z" fill="#737373" fill-rule="evenodd"/><path d="M476.156 344.809C474.496 346.746 472.912 348.73 471.389 350.749 470.777 351.562 470.176 352.38 469.586 353.205 469.018 354.002 468.458 354.804 467.91 355.613 466.708 357.385 465.554 359.184 464.454 361.009 463.997 361.769 463.549 362.534 463.11 363.303 462.676 364.062 462.252 364.825 461.835 365.593 460.907 367.301 460.024 369.028 459.184 370.774 458.829 371.512 458.483 372.254 458.145 372.998 457.807 373.741 457.476 374.487 457.153 375.236 455.415 379.273 453.904 383.398 452.633 387.598 454.042 389.009 455.411 390.448 456.739 391.912 458.309 386.187 460.339 380.598 462.801 375.182 463.149 374.417 463.504 373.655 463.87 372.898 464.238 372.132 464.616 371.371 465.002 370.613 465.923 368.809 466.894 367.027 467.914 365.268 468.376 364.472 468.847 363.681 469.329 362.895 469.823 362.088 470.329 361.287 470.845 360.49 472.095 358.562 473.4 356.66 474.773 354.799 475.419 353.922 476.082 353.055 476.755 352.193 477.462 351.29 478.185 350.399 478.921 349.513 479.307 349.049 479.69 348.583 480.083 348.124 481.594 346.362 483.153 344.665 484.747 343.019 484.75 343.016 484.751 343.014 484.749 343.01 484.704 342.895 484.113 341.371 483.801 340.732 483.393 339.894 482.912 339.191 482.258 338.836 482.157 338.781 481.939 338.695 481.814 338.67 481.811 338.67 481.808 338.67 481.806 338.672 481.675 338.804 481.547 338.938 481.419 339.071 480.477 340.035 479.547 341.016 478.632 342.017 477.806 342.923 476.986 343.84 476.183 344.777 476.173 344.788 476.165 344.798 476.156 344.809Z" fill="#737373" fill-rule="evenodd"/><path d="M481.386 353.566C479.776 355.56 478.238 357.596 476.782 359.678 476.196 360.515 475.627 361.359 475.067 362.21 474.527 363.031 473.999 363.859 473.481 364.692 472.354 366.506 471.284 368.35 470.271 370.218 469.847 371 469.433 371.786 469.028 372.577 468.632 373.352 468.246 374.132 467.869 374.917 464.614 381.684 462.079 388.752 460.301 396.029 461.721 397.742 463.092 399.484 464.406 401.257 466.302 391.889 469.494 382.839 473.911 374.328 474.334 373.513 474.768 372.703 475.213 371.897 475.669 371.075 476.133 370.258 476.611 369.448 477.78 367.463 479.022 365.513 480.33 363.598 480.945 362.698 481.572 361.805 482.216 360.922 482.89 359.997 483.58 359.081 484.286 358.176 485.287 356.894 486.318 355.628 487.384 354.386 488.313 353.303 489.264 352.251 490.227 351.215 491.366 349.992 492.529 348.801 493.713 347.644 494.174 347.195 494.643 346.741 495.111 346.301 495.116 346.296 495.115 346.288 495.108 346.285 494.135 345.781 492.739 345.935 491.317 346.141 490.05 346.325 488.763 346.546 487.727 346.382 487.723 346.382 487.721 346.383 487.719 346.385 487.318 346.802 486.919 347.225 486.524 347.65 485.599 348.642 484.687 349.653 483.793 350.688 483.691 350.806 483.585 350.921 483.483 351.04 482.769 351.872 482.073 352.716 481.386 353.566Z" fill="#737373" fill-rule="evenodd"/><path d="M490.804 479.413C490.932 479.328 491.069 479.258 491.216 479.197 491.221 479.195 491.223 479.188 491.219 479.183 490.292 477.97 489.395 476.738 488.531 475.485 488.513 478.219 488.407 480.951 488.207 483.681 488.175 484.127 488.141 484.578 488.104 485.023 488.102 485.055 488.11 485.057 488.122 485.028 488.257 484.715 488.381 484.381 488.498 484.04 489.116 482.253 489.589 480.218 490.804 479.413Z" fill="#737373" fill-rule="evenodd"/><path d="M489.197 359.197C488.401 360.171 487.632 361.161 486.876 362.16 485.334 364.198 483.877 366.286 482.506 368.417 481.959 369.267 481.423 370.122 480.904 370.986 480.399 371.827 479.904 372.674 479.425 373.528 473.684 383.755 469.844 394.865 468.029 406.415 469.552 408.71 470.986 411.049 472.342 413.423 473.655 398.779 478.364 384.722 486.183 372.211 486.759 371.289 487.354 370.376 487.964 369.471 488.601 368.528 489.255 367.594 489.927 366.669 491.424 364.611 493.007 362.599 494.683 360.645 494.995 360.281 495.314 359.928 495.63 359.57 496.735 358.32 497.865 357.107 499.021 355.929 499.3 355.645 499.578 355.361 499.859 355.081 499.866 355.075 499.864 355.067 499.855 355.066 499.355 354.936 498.912 354.742 498.566 354.445 498.392 354.296 498.245 354.111 498.112 353.911 497.555 353.085 497.297 351.878 497.061 350.651 497.059 350.642 497.052 350.64 497.045 350.646 495.257 352.382 493.521 354.198 491.843 356.093 491.489 356.493 491.132 356.891 490.783 357.298 490.245 357.928 489.717 358.56 489.197 359.197Z" fill="#737373" fill-rule="evenodd"/><path d="M485.653 448.043C487.001 454.186 487.874 460.42 488.277 466.686 490.782 471.056 493.663 475.222 496.903 479.141 496.905 479.143 496.907 479.145 496.91 479.144 497.884 479.146 498.759 479.011 499.372 478.516 500.124 477.91 500.425 476.789 500.622 475.547 500.622 475.544 500.622 475.541 500.62 475.539 493.921 467.351 488.862 458.051 485.653 448.043Z" fill="#737373" fill-rule="evenodd"/><path d="M497.376 364.408C496.512 365.44 495.673 366.488 494.859 367.55 494.097 368.546 493.352 369.555 492.634 370.577 482.166 385.497 476.574 403.047 476.447 421.262 479.2 427.016 481.496 432.948 483.313 439.004 482.616 435.562 482.105 432.063 481.832 428.51 480.138 406.403 487.004 384.867 501.264 367.79 501.508 367.499 501.736 367.197 501.984 366.908 502.806 365.951 503.648 365.02 504.502 364.108 505.603 362.933 506.727 361.793 507.88 360.695 507.882 360.693 507.883 360.691 507.883 360.688 507.883 360.545 507.88 360.403 507.879 360.26 507.864 358.718 507.782 357.23 506.964 356.388 506.643 356.057 506.214 355.84 505.718 355.694 505.714 355.694 505.711 355.694 505.709 355.696 503.043 358.132 500.494 360.752 498.084 363.561 497.845 363.842 497.612 364.126 497.376 364.408Z" fill="#737373" fill-rule="evenodd"/><path d="M486.298 428.161C487.483 443.631 493.006 458.118 502.166 470.25 502.17 470.255 502.176 470.255 502.18 470.252 503.362 469.233 505.723 469.309 507.693 469.004 507.701 469.002 507.703 468.994 507.699 468.989 498.262 457.263 492.593 443.014 491.424 427.777 489.898 407.871 496.188 388.443 509.287 373.171 511.106 371.05 513.027 369.066 515.022 367.199 515.028 367.194 515.026 367.186 515.02 367.184 513.322 366.497 510.875 366.351 509.412 365.477 509.409 365.475 509.404 365.476 509.401 365.478 508.021 366.868 506.68 368.316 505.385 369.826 491.412 386.115 484.665 406.853 486.298 428.161Z" fill="#737373" fill-rule="evenodd"/><path d="M510.995 465.952C511.004 465.962 511.011 465.96 511.013 465.947 511.213 463.755 510.449 460.826 511.506 459.339 511.656 459.127 511.853 458.944 512.071 458.777 512.075 458.774 512.076 458.768 512.073 458.765 505.714 449.408 501.896 438.536 501.015 427.042 499.685 409.715 505.152 392.764 516.586 379.432 516.984 378.968 517.398 378.53 517.806 378.08 517.81 378.076 517.809 378.07 517.805 378.066 517.304 377.735 516.891 377.36 516.647 376.905 515.96 375.624 516.522 373.591 516.823 371.708 516.825 371.693 516.818 371.689 516.807 371.7 515.387 373.096 514.005 374.547 512.686 376.085 500.379 390.434 494.454 408.693 495.889 427.426 496.979 441.663 502.239 454.975 510.995 465.952Z" fill="#737373" fill-rule="evenodd"/><path d="M516.379 457.119C516.382 457.122 516.386 457.124 516.39 457.123 517.607 456.736 518.691 456.267 519.182 455.422 519.664 454.588 519.559 453.452 519.307 452.243 519.307 452.241 519.306 452.241 519.306 452.239 514.322 444.507 511.323 435.642 510.607 426.308 509.525 412.209 513.732 398.369 522.639 387.224 522.64 387.224 522.641 387.223 522.641 387.222 523.312 385.293 524.385 383.214 523.769 381.756 523.479 381.068 522.821 380.555 522.014 380.112 522.01 380.11 522.005 380.11 522.002 380.114 521.316 380.839 520.643 381.582 519.986 382.347 509.345 394.754 504.241 410.533 505.479 426.692 506.328 437.769 510.097 448.215 516.379 457.119Z" fill="#737373" fill-rule="evenodd"/><path d="M520.423 445.195C521.857 444.306 523.769 443.612 524.854 442.588 524.856 442.585 524.858 442.58 524.856 442.577 522.243 437.305 520.656 431.548 520.196 425.574 519.385 415.014 522.159 404.587 528.202 395.836 528.204 395.834 528.204 395.83 528.202 395.827 527.582 394.533 525.764 393.555 524.282 392.486 524.277 392.483 524.272 392.484 524.269 392.488 517.366 402.264 514.153 413.998 515.069 425.956 515.589 432.741 517.41 439.253 520.408 445.192 520.411 445.197 520.417 445.198 520.423 445.195Z" fill="#737373" fill-rule="evenodd"/><path d="M525.467 430.771C525.468 430.778 525.476 430.781 525.481 430.777 527.065 429.487 529.064 428.284 529.305 426.73 529.686 424.271 525.641 421.336 525.793 418.861 525.946 416.38 530.32 413.962 530.244 411.483 530.198 410.008 528.591 408.653 527.227 407.279 527.222 407.274 527.214 407.275 527.211 407.282 525.066 412.956 524.187 419.059 524.66 425.222 524.804 427.099 525.081 428.951 525.467 430.771Z" fill="#737373" fill-rule="evenodd"/><path d="M483.855 481.621C483.925 480.412 483.983 479.201 484.017 477.99 484.11 474.656 484.056 471.321 483.869 467.993 483.761 466.056 483.607 464.122 483.405 462.191 483.113 459.402 482.722 456.624 482.235 453.861 481.135 447.625 479.539 441.47 477.45 435.457 476.522 432.785 475.497 430.142 474.375 427.533 473.615 425.766 472.811 424.016 471.963 422.283 470.5 419.291 468.907 416.349 467.182 413.47 466.555 412.425 465.912 411.389 465.25 410.36 464.63 409.396 463.992 408.441 463.342 407.491 461.988 405.515 460.572 403.571 459.087 401.665 458.496 400.905 457.893 400.153 457.281 399.405 456.674 398.664 456.055 397.928 455.428 397.2 454.08 395.635 452.687 394.098 451.247 392.592 450.654 391.972 450.05 391.36 449.442 390.751 448.831 390.14 448.21 389.534 447.583 388.934 446.6 387.992 445.604 387.058 444.581 386.144 443.961 385.589 443.339 385.044 442.704 384.501 435.277 378.13 427.278 372.849 418.907 368.627 413.993 366.148 408.953 364.033 403.821 362.286 399.43 360.793 394.976 359.559 390.478 358.596 390.477 358.596 390.476 358.596 390.475 358.596 388.369 358.921 385.777 358.803 384.67 360.095 384.147 360.704 383.987 361.593 383.961 362.585 383.961 362.589 383.965 362.594 383.969 362.594 403.811 365.843 423.022 374.391 439.357 388.401 441.719 390.426 443.973 392.53 446.127 394.702 446.767 395.348 447.399 395.999 448.022 396.656 448.645 397.316 449.261 397.981 449.866 398.653 451.362 400.313 452.796 402.012 454.178 403.741 454.828 404.555 455.465 405.376 456.09 406.204 456.735 407.057 457.366 407.918 457.984 408.786 459.591 411.047 461.107 413.356 462.531 415.709 463.252 416.899 463.953 418.098 464.626 419.31 465.395 420.694 466.134 422.091 466.841 423.502 469.708 429.215 472.071 435.132 473.923 441.183 474.874 444.292 475.688 447.435 476.37 450.605 477.454 455.652 478.202 460.764 478.595 465.904 478.686 467.087 478.751 468.27 478.805 469.455 478.875 471.018 478.921 472.582 478.928 474.147 478.934 475.54 478.908 476.933 478.863 478.325 478.78 480.936 478.606 483.544 478.343 486.146 478.342 486.153 478.348 486.157 478.354 486.156 479.733 485.788 481.644 486.524 483.414 486.96 483.42 486.961 483.425 486.957 483.426 486.951 483.491 486.321 483.549 485.691 483.603 485.06 483.703 483.916 483.788 482.769 483.855 481.621Z" fill="#737373" fill-rule="evenodd"/><path d="M474.021 484.345C474.128 483.135 474.21 481.923 474.277 480.712 474.462 477.365 474.494 474.014 474.372 470.669 474.319 469.19 474.242 467.712 474.128 466.237 474.092 465.765 474.045 465.293 474.003 464.822 473.753 462.022 473.397 459.231 472.932 456.457 471.87 450.13 470.25 443.889 468.084 437.812 467.125 435.12 466.06 432.461 464.887 429.84 464.097 428.079 463.265 426.335 462.379 424.611 460.853 421.641 459.182 418.733 457.37 415.892 456.714 414.866 456.04 413.849 455.348 412.841 454.696 411.892 454.028 410.953 453.344 410.022 451.925 408.09 450.436 406.196 448.876 404.345 448.255 403.608 447.622 402.879 446.98 402.156 446.346 401.444 445.703 400.739 445.048 400.041 442.871 397.72 440.581 395.471 438.166 393.311 437.597 392.802 437.024 392.3 436.442 391.801 420.964 378.526 402.799 370.364 384.018 367.149 384.013 367.148 384.009 367.152 384.008 367.157 383.933 367.724 383.784 368.232 383.5 368.632 382.401 370.18 379.273 370.41 377.283 371.357 377.266 371.365 377.268 371.373 377.286 371.375 397.254 373.636 416.75 381.684 433.095 395.703 437.069 399.109 440.718 402.755 444.048 406.599 444.729 407.385 445.399 408.178 446.052 408.981 446.73 409.813 447.388 410.655 448.036 411.503 449.718 413.704 451.301 415.96 452.786 418.266 453.539 419.434 454.27 420.614 454.972 421.807 455.774 423.17 456.547 424.548 457.282 425.941 460.275 431.608 462.709 437.509 464.59 443.56 465.571 446.713 466.399 449.906 467.075 453.128 468.011 457.588 468.661 462.102 469.008 466.641 469.145 468.433 469.233 470.229 469.278 472.026 469.317 473.589 469.325 475.153 469.294 476.716 469.266 478.113 469.206 479.507 469.122 480.902 468.958 483.646 468.692 486.386 468.311 489.115 468.195 489.943 468.069 490.77 467.934 491.596 467.932 491.6 467.935 491.604 467.939 491.606 468.982 492.116 470.014 492.72 470.982 492.945 471.532 493.074 472.079 493.045 472.556 492.894 472.692 492.852 472.82 492.796 472.946 492.727 472.949 492.726 472.951 492.724 472.951 492.72 473.225 491.082 473.459 489.433 473.658 487.786 473.796 486.641 473.919 485.493 474.021 484.345Z" fill="#737373" fill-rule="evenodd"/><path d="M463.621 490.176C463.8 489.038 463.958 487.899 464.098 486.757 464.244 485.56 464.368 484.361 464.47 483.162 464.755 479.826 464.869 476.482 464.819 473.14 464.789 471.19 464.707 469.242 464.564 467.299 464.556 467.19 464.551 467.083 464.543 466.974 464.337 464.285 464.015 461.606 463.592 458.943 462.582 452.576 460.96 446.3 458.729 440.21 457.753 437.548 456.658 434.922 455.451 432.339 454.635 430.594 453.77 428.867 452.849 427.165 451.264 424.236 449.524 421.374 447.63 418.592 446.948 417.591 446.242 416.602 445.521 415.622 444.839 414.696 444.145 413.778 443.428 412.872 439.951 408.482 436.057 404.331 431.751 400.48 431.232 400.016 430.71 399.558 430.179 399.103 414.244 385.437 395.183 377.708 375.708 375.715 375.701 375.714 375.696 375.719 375.698 375.726 376.079 377.556 376.788 379.552 376.321 380.93 376.318 380.935 376.322 380.941 376.328 380.942 394.409 383.016 412.045 390.321 426.833 403.005 433.161 408.429 438.59 414.522 443.113 421.089 443.896 422.226 444.654 423.374 445.382 424.538 446.216 425.871 447.012 427.221 447.774 428.587 450.868 434.137 453.364 439.954 455.261 445.936 456.274 449.132 457.117 452.375 457.784 455.652 458.573 459.523 459.125 463.44 459.426 467.378 459.605 469.714 459.695 472.055 459.701 474.398 459.705 475.945 459.67 477.493 459.598 479.041 459.534 480.434 459.441 481.826 459.316 483.217 458.923 487.555 458.225 491.874 457.23 496.141 457.229 496.147 457.233 496.152 457.239 496.153 457.37 496.161 457.502 496.162 457.63 496.146 459.835 495.875 461.447 492.099 463.502 490.926 463.505 490.925 463.507 490.923 463.506 490.92 463.547 490.671 463.583 490.423 463.621 490.176Z" fill="#737373" fill-rule="evenodd"/><path d="M455.082 469.611C455.047 468.977 455.008 468.342 454.96 467.709 454.796 465.581 454.556 463.458 454.243 461.346 453.3 454.984 451.674 448.719 449.385 442.666 448.397 440.054 447.286 437.481 446.05 434.959 445.214 433.252 444.322 431.568 443.372 429.909 438.709 421.758 432.69 414.219 425.34 407.646 424.871 407.227 424.399 406.814 423.919 406.402 408.431 393.118 389.667 386.037 370.674 384.952 370.672 384.951 370.67 384.953 370.668 384.954 370.083 385.376 369.627 385.849 369.425 386.425 369.06 387.46 369.521 388.743 370.101 390.059 370.102 390.062 370.105 390.064 370.108 390.065 388.124 391.037 405.911 397.728 420.571 410.303 432.775 420.763 441.282 433.988 445.929 448.31 446.977 451.538 447.828 454.821 448.482 458.142 449.13 461.435 449.584 464.763 449.84 468.109 450.478 476.437 449.89 484.842 448.072 493.04 448.07 493.051 448.077 493.056 448.086 493.049 448.685 492.668 449.281 492.406 449.873 492.388 450.918 492.356 452.022 493.072 453.134 493.888 453.14 493.892 453.147 493.89 453.148 493.882 454.477 487.796 455.162 481.605 455.214 475.415 455.232 473.48 455.189 471.544 455.082 469.611Z" fill="#737373" fill-rule="evenodd"/><path d="M418.926 414.815C418.507 414.44 418.085 414.071 417.657 413.704 404.199 402.161 387.967 395.865 371.46 394.644 371.456 394.644 371.451 394.647 371.45 394.653 371.442 394.704 371.44 394.758 371.428 394.806 370.973 396.618 368.188 397.958 366.667 399.549 366.659 399.558 366.662 399.565 366.674 399.565 383.645 399.827 400.538 405.794 414.31 417.606 429.968 431.027 438.781 449.592 440.255 468.847 440.883 477.039 440.165 485.306 438.115 493.311 438.114 493.314 438.115 493.318 438.117 493.32 439.497 494.755 440.841 496.517 442.362 496.611 442.419 496.615 442.476 496.605 442.532 496.604 442.536 496.603 442.54 496.601 442.541 496.597 445.148 487.414 446.098 477.877 445.374 468.448 443.839 448.444 434.882 429.084 418.926 414.815Z" fill="#737373" fill-rule="evenodd"/><path d="M435.79 469.181C434.437 451.56 426.544 434.53 412.512 421.982 412.143 421.652 411.773 421.327 411.395 421.004 398.443 409.897 382.564 404.293 366.627 404.04 366.617 404.04 366.613 404.047 366.619 404.055 367.688 405.746 369.274 407.493 369.214 409.059 369.213 409.076 369.194 409.209 369.185 409.269 369.184 409.275 369.188 409.278 369.193 409.279 383.096 410.059 396.776 415.238 408.048 424.905 421.683 436.59 429.381 452.765 430.67 469.58 431.307 477.899 430.363 486.299 427.837 494.317 427.836 494.323 427.84 494.329 427.847 494.329 429.69 494.313 431.924 492.36 433.893 491.694 433.896 491.693 433.898 491.691 433.898 491.687 435.731 484.312 436.367 476.711 435.79 469.181Z" fill="#737373" fill-rule="evenodd"/><path d="M406.099 429.15C405.78 428.865 405.459 428.584 405.134 428.304 393.873 418.648 380.043 413.802 366.158 413.652 366.156 413.652 366.153 413.653 366.151 413.656 365.361 414.596 364.733 415.538 364.762 416.491 364.785 417.282 365.264 418.04 365.91 418.785 365.912 418.787 365.914 418.789 365.917 418.789 378.727 418.886 391.45 423.341 401.787 432.207 413.399 442.158 419.985 455.94 421.086 470.316 421.538 476.214 421.045 482.15 419.64 487.906 419.638 487.912 419.644 487.918 419.65 487.916 420.282 487.804 420.874 487.791 421.385 487.972 422.488 488.36 423.32 489.637 424.142 490.945 424.149 490.955 424.156 490.954 424.159 490.943 426.06 484.085 426.745 476.968 426.204 469.917 425.036 454.677 418.207 439.978 406.099 429.15Z" fill="#737373" fill-rule="evenodd"/><path d="M399.686 436.318C399.417 436.078 399.147 435.841 398.872 435.605 390.368 428.311 380.114 424.273 369.632 423.43 369.626 423.43 369.621 423.435 369.622 423.441 369.632 423.489 369.648 423.536 369.654 423.584 369.835 425.051 368.542 426.77 367.576 428.435 367.572 428.441 367.576 428.448 367.583 428.449 377.614 428.901 387.455 432.586 395.526 439.507 405.116 447.723 410.587 459.113 411.501 471.05 411.868 475.827 411.485 480.626 410.384 485.281 410.384 485.283 410.384 485.284 410.385 485.286 411.034 486.934 411.651 488.633 412.856 489.188 413.365 489.423 413.962 489.443 414.603 489.352 414.607 489.352 414.609 489.349 414.61 489.345 416.425 483.272 417.102 476.935 416.62 470.653 415.634 457.793 409.869 445.425 399.686 436.318Z" fill="#737373" fill-rule="evenodd"/><path d="M393.272 443.486C393.054 443.29 392.834 443.097 392.611 442.906 385.308 436.642 376.407 433.323 367.354 432.919 367.346 432.919 367.341 432.928 367.347 432.934 368.857 434.606 372.128 435.813 372.734 437.73 372.834 438.043 372.859 438.385 372.838 438.743 372.837 438.747 372.84 438.751 372.846 438.752 378.775 439.967 384.427 442.657 389.266 446.806 396.832 453.288 401.19 462.285 401.918 471.784 402.181 475.215 401.957 478.656 401.269 482.005 401.268 482.01 401.272 482.016 401.278 482.016 402.893 482.103 404.937 481.51 406.578 481.534 406.582 481.535 406.586 481.53 406.587 481.526 407.147 478.18 407.298 474.776 407.038 471.388 406.232 460.91 401.532 450.872 393.272 443.486Z" fill="#737373" fill-rule="evenodd"/><path d="M386.859 450.653C386.69 450.502 386.522 450.354 386.349 450.207 381.985 446.464 376.871 444.082 371.523 443.059 371.518 443.059 371.513 443.061 371.512 443.066 371.112 444.229 370.866 445.336 371.238 446.217 372.16 448.403 376.77 448.841 378.186 450.81 379.88 451.721 381.498 452.817 383.003 454.108 388.312 458.654 391.513 464.904 392.249 471.627 392.28 471.91 392.33 472.521 392.336 472.602 392.336 472.607 392.34 472.611 392.345 472.61 393.934 472.669 395.52 472.738 396.439 473.525 396.954 473.967 397.275 474.655 397.512 475.448 397.521 475.479 397.529 475.478 397.531 475.446 397.559 474.34 397.536 473.232 397.451 472.125 396.829 464.026 393.195 456.318 386.859 450.653Z" fill="#737373" fill-rule="evenodd"/><path d="M380.087 457.507C379.488 456.992 378.865 456.515 378.227 456.073 378.221 456.069 378.213 456.073 378.212 456.079 377.98 457.466 377.862 458.787 378.456 459.684 379.375 461.07 381.926 461.272 383.973 461.851 383.981 461.853 383.988 461.844 383.984 461.836 382.984 460.384 381.802 459.035 380.446 457.822 380.328 457.715 380.208 457.611 380.087 457.507Z" fill="#737373" fill-rule="evenodd"/><path d="M445.619 381.101C442.193 378.163 438.649 375.454 435.007 372.958 440.7 374.075 446.492 374.784 452.348 375.085 451.118 378.06 450.01 381.081 449.021 384.141 447.907 383.113 446.778 382.096 445.619 381.101Z" fill="#737373" fill-rule="evenodd"/><path d="M295.646 325.25C327.175 270.641 385.443 237 448.5 237L448.5 252.966C391.147 252.966 338.15 283.564 309.474 333.233Z" fill="#7F7F7F" fill-rule="evenodd"/><path d="M295.646 501.75C264.118 447.141 264.118 379.859 295.646 325.25L309.474 333.233C280.797 382.902 280.797 444.098 309.474 493.767Z" fill="#7F7F7F" fill-rule="evenodd"/><path d="M448.5 590C385.443 590 327.175 556.359 295.647 501.75L309.474 493.767C338.15 543.436 391.147 574.034 448.5 574.034Z" fill="#7F7F7F" fill-rule="evenodd"/><path d="M601.354 501.75C569.825 556.359 511.557 590 448.5 590L448.5 574.034C505.853 574.034 558.85 543.436 587.526 493.767Z" fill="#7F7F7F" fill-rule="evenodd"/><path d="M601.354 325.25C632.882 379.859 632.882 447.141 601.354 501.75L587.526 493.767C616.203 444.098 616.203 382.902 587.526 333.233Z" fill="#7F7F7F" fill-rule="evenodd"/><path d="M448.5 237C511.557 237 569.825 270.641 601.353 325.25L587.526 333.233C558.85 283.564 505.853 252.966 448.5 252.966Z" fill="#7F7F7F" fill-rule="evenodd"/><text fill="#FFFFFF" font-family="JasmineUPC,JasmineUPC_MSFontService,sans-serif" font-weight="400" font-size="44" transform="translate(397.997 400)">Decision <tspan font-size="44" x="8.72" y="42">Quality</tspan></text><path d="M393.5 230C393.5 226.963 395.963 224.5 399 224.5L499 224.5C502.038 224.5 504.5 226.963 504.5 230L504.5 252C504.5 255.038 502.038 257.5 499 257.5L399 257.5C395.963 257.5 393.5 255.038 393.5 252Z" stroke="#FFFFFF" stroke-width="1.33333" stroke-miterlimit="8" fill="#B27D49" fill-rule="evenodd"/><text fill="#FFFFFF" font-family="JasmineUPC,JasmineUPC_MSFontService,sans-serif" font-weight="400" font-size="27" transform="translate(425.643 245)">Frame</text><path d="M543.5 316C543.5 312.963 545.963 310.5 549 310.5L649 310.5C652.038 310.5 654.5 312.963 654.5 316L654.5 338C654.5 341.038 652.038 343.5 649 343.5L549 343.5C545.963 343.5 543.5 341.038 543.5 338Z" stroke="#FFFFFF" stroke-width="1.33333" stroke-miterlimit="8" fill="#B27D49" fill-rule="evenodd"/><text fill="#FFFFFF" font-family="JasmineUPC,JasmineUPC_MSFontService,sans-serif" font-weight="400" font-size="27" transform="translate(574.555 332)">Values</text><path d="M543.5 489C543.5 485.963 545.963 483.5 549 483.5L649 483.5C652.038 483.5 654.5 485.963 654.5 489L654.5 511C654.5 514.038 652.038 516.5 649 516.5L549 516.5C545.963 516.5 543.5 514.038 543.5 511Z" stroke="#FFFFFF" stroke-width="1.33333" stroke-miterlimit="8" fill="#B27D49" fill-rule="evenodd"/><text fill="#FFFFFF" font-family="JasmineUPC,JasmineUPC_MSFontService,sans-serif" font-weight="400" font-size="27" transform="translate(556.208 505)">Alternatives</text><path d="M393.5 575.167C393.5 572.037 396.037 569.5 399.167 569.5L498.833 569.5C501.963 569.5 504.5 572.037 504.5 575.167L504.5 597.833C504.5 600.963 501.963 603.5 498.833 603.5L399.167 603.5C396.037 603.5 393.5 600.963 393.5 597.833Z" stroke="#FFFFFF" stroke-width="1.33333" stroke-miterlimit="8" fill="#B27D49" fill-rule="evenodd"/><text fill="#FFFFFF" font-family="JasmineUPC,JasmineUPC_MSFontService,sans-serif" font-weight="400" font-size="27" transform="translate(406.803 591)">Information</text><path d="M243.5 489C243.5 485.963 245.963 483.5 249 483.5L349 483.5C352.038 483.5 354.5 485.963 354.5 489L354.5 511C354.5 514.038 352.038 516.5 349 516.5L249 516.5C245.963 516.5 243.5 514.038 243.5 511Z" stroke="#FFFFFF" stroke-width="1.33333" stroke-miterlimit="8" fill="#B27D49" fill-rule="evenodd"/><text fill="#FFFFFF" font-family="JasmineUPC,JasmineUPC_MSFontService,sans-serif" font-weight="400" font-size="27" transform="translate(261.531 505)">Reasoning</text><path d="M243.5 316C243.5 312.963 245.963 310.5 249 310.5L349 310.5C352.038 310.5 354.5 312.963 354.5 316L354.5 338C354.5 341.038 352.038 343.5 349 343.5L249 343.5C245.963 343.5 243.5 341.038 243.5 338Z" stroke="#FFFFFF" stroke-width="1.33333" stroke-miterlimit="8" fill="#B27D49" fill-rule="evenodd"/><text fill="#FFFFFF" font-family="JasmineUPC,JasmineUPC_MSFontService,sans-serif" font-weight="400" font-size="27" transform="translate(251.771 332)">Commitment</text></g></svg>