<svg width="720" height="658" xmlns="http://www.w3.org/2000/svg" xmlns:xlink="http://www.w3.org/1999/xlink" overflow="hidden"><defs><clipPath id="clip0"><rect x="1017" y="298" width="720" height="658"/></clipPath><clipPath id="clip1"><rect x="1017" y="299" width="719" height="657"/></clipPath><clipPath id="clip2"><rect x="1017" y="299" width="719" height="657"/></clipPath><clipPath id="clip3"><rect x="1017" y="299" width="719" height="657"/></clipPath><clipPath id="clip4"><rect x="1017" y="299.059" width="719.035" height="656.856"/></clipPath></defs><g clip-path="url(#clip0)" transform="translate(-1017 -298)"><g clip-path="url(#clip1)"><g clip-path="url(#clip2)"><g clip-path="url(#clip3)"><path d="M405.324 189.839C404.947 188.174 404.15 193.051 403.441 194.607 402.086 197.583 400.686 200.536 399.232 203.464 395.146 211.685 390.603 219.677 386.248 227.755 378.269 242.561 347.719 301.542 364.899 317.033 371.329 322.833 382.154 304.096 384.501 300.511 399.12 278.192 409.418 252.992 432.21 237.797ZM448.341 260.48 448.293 260.426C448.321 260.422 448.338 260.443 448.341 260.48L476.745 293.962C457.931 293.962 436.572 342.209 428.532 354.836 426.142 358.593 415.742 377.966 408.859 371.979 391.996 357.316 424.384 301.593 432.486 288.333 436.041 282.51 439.739 276.779 443.332 270.983 443.533 270.656 448.43 261.298 448.341 260.48ZM495.846 316.189 495.475 315.824C495.996 314.946 496.054 315.259 495.846 316.189L541.672 360.912C524.55 350.042 467.803 485.565 444.401 466.322 424.555 450.006 469.257 376.209 477.474 359.893 479.889 355.102 479.66 355.548 481.898 350.787 485.851 342.38 489.924 333.965 493.016 325.193 493.748 323.112 495.403 318.201 495.846 316.189ZM568.398 395.554 568.391 395.544C568.398 395.541 568.401 395.544 568.398 395.554L605.526 451.937C605.087 451.358 602.948 451.747 602.4 451.93 580.347 459.375 532.267 548.555 511.63 529.764 491.055 511.027 539.575 449.778 548.987 433.644 553.09 426.608 568.278 396.222 568.398 395.554ZM663.247 542.146C662.393 541.638 655.79 542.663 655.715 542.684 647.787 544.679 642.359 549.453 636.607 555.1 627.419 564.127 591.418 615.024 577.817 603.939 561.144 590.352 600.81 536.956 607.995 524.86 613.836 515.029 619.012 504.823 622.846 494.041 623.868 491.167 624.896 488.269 625.393 485.249 625.656 483.662 624.024 479.555 625.38 480.42L663.247 542.146C663.316 542.186 663.346 542.234 663.339 542.292L663.247 542.146" fill="#C2887D" fill-rule="evenodd" transform="matrix(1.00019 0 0 1 1017 299.059)"/><g clip-path="url(#clip4)"><path d="M29.0785 195.514C29.3747 197.414 37.5919 199.147 38.7872 199.491 49.967 202.702 61.7394 204.725 73.379 204.981M17.0848 209.993C17.095 209.908 16.9996 210.17 17.0405 210.245 17.616 211.298 19.5809 211.955 20.5582 212.432 23.7831 213.995 27.1613 215.21 30.5768 216.287 40.6636 219.471 51.1555 221.527 61.7156 222.14M22.3733 253.415C22.2814 253.477 25.2849 255.19 25.4177 255.251 27.8628 256.368 30.4338 257.192 33.0015 257.979 40.5512 260.291 48.3154 261.646 56.1784 262.293M7.08999 268.382C17.1699 271.576 34.1763 275.574 44.7943 276.109M264.802 184.719C264.672 184.923 266.675 181.266 267.114 180.632 273.85 170.876 281.621 162.008 290.185 153.812 309.221 135.589 396.879 13.408 421.231 3.70614M255.083 356.758C234.593 332.849 225.391 275.836 225.391 275.836M221.131 385.428C210.026 386.422 163.485 321.962 142.542 310.098 106.03 289.414 31.5065 296.704 12.4262 286.662 0.623183 280.447-3.44624 262.555 28.0705 249.833 68.1722 233.64 138.575 254.965 204.673 258.036M327.495 362.561C306.545 367.049 230.418 270.384 201.108 254.825 141.183 223.009 39.0698 245.477 13.4989 234.389-4.04899 226.785 24.1271 190.991 47.6854 188.315 67.3208 186.084 214.739 173.42 228.97 174.966 265.415 178.926 320.2 227.735 350.318 247.892M275.563 597.399C276.69 601.077 278.314 604.649 279.986 608.105 285.966 620.46 293.87 632.076 301.808 643.252 301.907 643.392 303.119 645.364 303.388 645.309 304.417 645.105 354.264 606.171 367.116 565.061 371.141 552.182 410.988 452.03 444.336 401.971 481.21 346.62 526.941 326.287 588.36 232.959 682.352 90.1447 669.258 95.0518 715.2 40.2288M237.848 417.82C238.86 418.675 249.879 416.345 253.247 415.937 269.743 413.938 285.537 410.553 301.297 405.298M226.934 435.174C226.631 435.473 228.235 435.531 228.32 435.538 230.244 435.688 232.175 435.773 234.102 435.899 239.479 436.26 244.853 436.672 250.237 436.955 266.396 437.813 282.612 437.98 298.641 435.456M214.249 443.871C213.33 443.268 216.231 444.821 217.215 445.305 218.863 446.112 220.498 446.939 222.156 447.716 228.214 450.546 234.453 453.035 240.705 455.388 259.387 462.413 278.934 467.593 298.828 469.599M183.015 408.547C213.387 400.579 203.498 430.614 203.498 430.614M280.044 612.801C279.745 612.273 278.512 612.273 278.011 612.144 250.002 604.86 217.975 597.624 197.651 575.604 173.889 549.863 177.175 516.576 175.724 484.361 174.924 466.598 163.938 451.043 163.41 435.804 162.63 413.148 215.57 385.125 234.705 382.571M217.208 591.811C216.653 590.006 217.372 595.591 217.665 597.457 218.101 600.266 218.724 603.048 219.401 605.807 219.939 607.993 220.525 610.169 221.114 612.342 224.196 623.688 228.548 644.226 237.378 653.056 237.954 653.632 241.172 651.408 241.587 651.17 256.54 642.544 265.759 627.7 279.779 618.356" stroke="#5E6697" stroke-width="7.41009" stroke-linecap="round" stroke-linejoin="round" stroke-miterlimit="10" fill="none" transform="matrix(1.00019 0 0 -1 1017 955.915)"/></g><path d="M219.463 193.098C214.893 194.893 209.853 196.119 204.932 195.342 203.365 195.094 200.532 194.569 199.974 192.771 199.483 191.205 202.317 187.66 210.452 187.459 222.555 187.163 222.207 192.022 219.463 193.098" fill="#5E6697" fill-rule="evenodd" transform="matrix(1.00019 0 0 1 1017 299.059)"/><path d="M239.684 18.8521C234.879 18.8011 229.25 50.0726 232.243 54.2374 232.243 54.2374 254.412 48.1758 258.614 46.7762 261.257 45.8976 243.804 18.893 239.684 18.8521ZM306.667 30.7744C300.531 27.3656 285.813 59.1002 289.777 63.8099 295.852 71.0259 323.848 72.5447 328.06 69.1802 330.263 67.4162 310.764 33.0525 306.667 30.7744ZM164.102 223.222C162.164 218.468 170.109 216.207 172.21 215.638 187.895 211.406 173.861 247.142 164.102 223.222" fill="#E06CB9" fill-rule="evenodd" transform="matrix(1.00019 0 0 1 1017 299.059)"/></g></g></g></g></svg>