<svg width="866" height="642" xmlns="http://www.w3.org/2000/svg" xmlns:xlink="http://www.w3.org/1999/xlink" overflow="hidden"><defs><clipPath id="clip0"><rect x="930" y="281" width="866" height="642"/></clipPath><clipPath id="clip1"><rect x="931" y="282" width="864" height="640"/></clipPath><clipPath id="clip2"><rect x="931" y="282" width="864" height="640"/></clipPath><clipPath id="clip3"><rect x="931" y="282" width="864" height="640"/></clipPath><clipPath id="clip4"><rect x="1224.46" y="499.317" width="310.751" height="422.615"/></clipPath><clipPath id="clip5"><rect x="1125.5" y="282.022" width="669.512" height="639.863"/></clipPath></defs><g clip-path="url(#clip0)" transform="translate(-930 -281)"><g clip-path="url(#clip1)"><g clip-path="url(#clip2)"><g clip-path="url(#clip3)"><path d="M258.052 467.349C257.611 467.526 258.254 466.583 258.265 466.568 263.152 460.768 269.068 455.613 274.822 450.694M239.168 439.454C239.179 434.224 252.309 425.407 255.563 422.564 272.673 407.636 290.519 393.268 310.941 383.151M216.121 405.909C226.039 389.833 265.301 358.853 283.689 350.95M203.901 383.515C206.878 383.32 209.616 375.009 213.007 374.095M169.913 514.387C168.927 514.391 169.862 512.411 169.769 511.429 169.469 508.236 168.721 505.046 167.97 501.933 166.106 494.243 163.784 486.608 160.945 479.221 152.547 457.365 141.021 441.079 131.977 419.628M210.818 517.273C211.136 517.136 211.013 516.056 211.003 515.846 210.396 505.595 205.837 494.543 202.012 485.217 189.678 455.162 169.953 428.632 152.438 401.463M243.781 510.428C244.027 510.407 242.997 506.621 242.947 506.452 240.285 497.443 236.243 488.8 231.966 480.464 231.565 479.687 231.161 478.914 230.753 478.141 230.337 477.35 229.918 476.559 229.496 475.772 212.166 443.542 190.963 410.811 167.674 382.407M265.709 504.595C267.089 495.684 254.628 472.521 250.748 464.582 233.173 428.6 208.81 392.339 180.81 363.462M138.858 303.413C139.313 304.591 128.867 321.217 127.993 322.618 116.973 340.306 104.732 357.838 87.8136 370.386M162.238 301.329C162.599 301.141 161.88 304.179 161.876 304.197 160.746 307.48 159.16 310.623 157.542 313.689 153.623 321.134 149.426 328.451 144.879 335.531 131.428 356.48 115.618 377.332 95.7815 392.708M190.31 301.058C191.267 305.216 176.465 329.484 174.374 333.19 158.351 361.566 131.594 403.121 100.835 418.443M202.334 319.403C197.292 335.444 189.201 345.041 185.376 352.514 171.86 378.899 153.175 401.749 130.189 420.429 124.063 425.407 117.76 430.283 111.161 434.621 110.988 434.733 106.234 438.153 106.014 438.005M288.825 224.099C291.639 219.436 287.919 205.432 285.921 200.477M262.65 218.168C263.058 218.049 262.484 216.29 262.426 216.001 260.454 206.155 255.278 198.309 250.882 189.518M236.221 231.117C236.579 231.167 236.095 230.402 236.012 230.048 235.293 226.898 234.3 223.752 233.238 220.703 230.912 214.018 227.379 207.61 223.027 202.015M214.698 239.095C215.261 239.775 214.607 237.315 214.369 236.466 213.708 234.125 212.769 231.886 211.851 229.647 209.514 223.94 206.43 218.135 202.027 213.736M165.08 241.353C165.528 242.704 179.712 242.805 180.994 242.866 197.295 243.672 214.04 243.271 230.175 241.27M137.449 267.446C159.312 273.015 190.443 271.469 212.808 265.831M113.776 297.273C113.863 297.046 113.906 297.797 114.119 297.909 119.768 300.791 128.477 300.181 134.552 300.462 140.877 300.755 200.42 301.701 204.544 295.947M84.2775 352.644C84.1438 352.597 88.3626 341.53 88.4565 341.274 89.8182 337.575 91.3786 333.945 93.0509 330.38 101.745 311.894 113.527 295.2 126.689 279.632 156.011 244.95 192.661 217.229 232.165 195.149 235.867 193.079 265.788 176.529 270.253 178.35M77.4726 310.023C77.2378 310.012 78.9607 305.953 78.9968 305.844 81.4818 299.05 85.8342 292.686 89.7062 286.643 97.5225 274.446 106.48 262.916 115.788 251.831 141.913 220.729 172.582 193.397 207.643 172.777 219.949 165.538 232.862 158.556 246.732 154.829 248.823 154.265 254.747 154.489 256.419 153.023M74.5794 249.187C78.036 245.586 87.0623 236.686 90.5912 233.15 100.939 222.78 111.414 212.537 121.939 202.34 166.825 158.867 234.032 127.067 237.745 123.813M73.5861 218.511C79.7228 207.664 92.7583 192.852 101.116 183.764 123.232 159.709 152.655 136.029 183.01 123.264M85.892 159.951C85.8812 159.86 82.681 166.597 82.5943 166.781 81.1748 169.717 80.2249 172.878 79.358 176.013 77.1258 184.071 75.6774 192.299 74.7094 200.603 71.7404 225.995 72.2822 251.893 73.9076 277.357 77.1619 328.292 87.4488 377.899 100.86 427.039 108.037 453.327 117.612 486.994 136.131 508.113M97.8186 487.171C96.7531 485.636 94.4451 480.904 93.5566 479.257 90.7609 474.063 88.5034 468.537 86.3218 463.068 79.7662 446.652 74.3266 429.737 69.1579 412.844 51.4341 354.945 44.5389 307.957 45.4057 247.8 45.5755 236.173 44.5714 201.842 51.4955 190.829M63.8555 458.07C63.9639 458.767 60.919 451.944 60.5145 450.987 58.0114 445.117 55.5625 439.23 53.2437 433.284 47.1792 417.724 41.7216 401.915 36.7335 385.972 31.1097 367.995 26.4105 349.664 23.8099 330.987 20.4942 307.17 21.65 256.552 28.9822 226.186M284.693 497.512C276.577 499.383 239.497 525.617 169.769 516.471 65.806 502.836-5.35651 385.119 4.91224 306.819 32.6989 94.9753 238.255 116.636 249.654 128.035" stroke="#5897D7" stroke-width="7.85959" stroke-linecap="round" stroke-linejoin="round" stroke-miterlimit="10" fill="none" transform="matrix(1.00021 0 0 -1 940.526 921.932)"/><g clip-path="url(#clip4)"><path d="M390.187 567.487C368.545 555.737 351.157 518.466 322.417 526.632 299.04 533.271 287.998 562.864 285.148 584.564 284.274 591.217 284.029 598.091 284.592 604.78 284.82 607.446 285.152 610.137 285.856 612.723 286.2 613.983 287.807 616.772 288.219 617.61L315.637 621.395C334.964 632.242 355.357 632.068 377.293 635.854 395.797 639.043 488.136 648.445 485.12 619.885 478.12 553.675 422.706 585.138 390.187 567.487ZM288.219 617.61 288.078 617.592C288.363 617.971 288.367 617.917 288.219 617.61ZM538.039 411.765C510.245 398.134 518.852 364.214 505.549 341.646 495.454 324.519 469.058 325.87 460.953 308.521 452.472 290.368 494.341 222.59 513.239 217.782 513.402 217.739 513.463 217.739 513.6 217.804L581.147 348.831C587.327 357.944 593.186 366.02 594.1 377.683 595.873 400.442 560.314 422.691 538.039 411.765" fill="#DCAB3F" transform="matrix(1.00021 0 0 1 940.526 282.022)"/></g><path d="M738.599 615.656C728.915 606.387 725.415 594.19 723.573 581.23 722.176 571.395 722.948 561.003 725.647 551.435 725.824 550.814 731.61 534.098 731.173 533.762 729.808 532.707 678.016 551.284 675.397 579.106 674.386 589.841 675.939 601.461 679.28 611.69 680.288 614.782 681.585 617.812 683.282 620.59 684.257 622.186 689.097 625.285 687.551 624.234L696.083 627.218C710.202 625.773 723.613 624.96 737.447 621.76 740.224 621.121 745.888 620.377 745.888 620.377 745.888 620.377 740.69 617.657 738.599 615.656ZM409.089 233.545C403.841 229.886 396.411 234.448 390.65 233.657 373.865 231.349 373.388 211.624 347.375 228.759 346.14 229.572 338.435 233.953 339.216 236.196L312.274 257.839C305.91 264.391 292.134 305.993 302.143 310.649 305.755 312.328 324.8 297.183 332.299 296.562 342.741 295.703 347.433 308.514 357.167 310.866 377.73 315.832 400.611 286.933 408.272 271.257 412.441 262.736 419.462 240.776 409.089 233.545ZM506.138 151.492C506.618 157.806 501.713 165.763 495.125 159.489 484.734 149.592 488.057 131.525 479.384 120.505 470.405 109.092 449.062 112.548 443.521 98.0462 437.908 83.342 456.597 68.6847 467.866 63.4402 471.604 61.6992 475.758 60.2364 479.894 59.868 480.266 59.8355 486.727 60.8974 486.522 61.161L501.865 118.378C502.956 124.348 503.639 130.333 504.249 136.369 504.758 141.422 505.755 146.428 506.138 151.492" fill="#C7601E" fill-rule="evenodd" transform="matrix(1.00021 0 0 1 940.526 282.022)"/><g clip-path="url(#clip5)"><path d="M305.162 442.426C306.21 441.783 302.814 441.707 301.688 441.22 299.69 440.353 297.707 439.443 295.757 438.471 289.523 435.354 283.458 431.868 277.448 428.343 258.973 417.507 241.534 405.407 224.28 392.762M310.009 461.302C307.698 462.144 283.068 453.298 280.157 452.363 253.161 443.643 226.602 433.797 201.207 421.105M311.472 479.857C280.543 481.54 223.605 477.56 189.735 463.477M452.056 603.421C454.003 606.82 463.662 612.744 468.086 615.662 486.514 627.82 495.902 629.843 498.282 608.182 500.265 590.111 500.149 565.261 497.993 547.14M386.467 614.636C420.853 614.413 463.654 603.15 478.915 585.253 512.419 545.959 502.963 457.994 516.002 416.077 525.108 386.784 543.746 356.574 557.128 333.746 574.064 304.855 592.767 277.046 611.744 249.465 652.183 190.692 671.984 156.306 636.905 86.9243M318.62 245.106C318.588 245.135 313.495 237.55 313.423 237.441 305.444 225.67 296.743 214.404 288.667 202.702 264.268 167.351 238.507 123.578 241.899 78.8047 243.463 58.1552 256.639 44.791 273.33 34.1646 336.9-6.31079 417.573 5.11379 489.317 6.64887 516.754 7.234 551.443 2.4554 572.37 24.8711M272.229 326.873C262.249 373.077 212.173 376.544 206.181 371.387 193.792 360.72 205.505 280.875 213.441 265.257 219.704 252.933 229.134 242.801 239.4 233.706 260.19 215.293 263.376 219.031 288.739 229.643 314.127 240.266 337.688 256.837 359.919 272.943M372.5 426.837C372.449 426.945 371.441 426.877 371.34 426.873 359.114 426.526 343.294 411.822 334.643 404.703 310.335 384.704 289.024 360.276 275.324 331.778 270.264 321.256 267.443 309.557 261.703 299.386M329.46 584.531C325.826 581.876 324.237 575.808 321.886 571.882 312.18 555.668 299.56 541.245 293.637 523.03 289.616 510.656 290.267 497.4 286.355 485.076 282.465 472.828 271.062 461.97 274.053 448.296 280.048 420.877 306.99 407.083 332.187 404.685M328.643 560.027C328.643 560.027 328.709 569.931 328.788 571.322 329.723 587.601 332.013 604.137 335.792 619.997 340.845 641.184 348.65 638.656 367.58 627.665 373.981 623.948 379.846 619.495 385.055 614.239 392.268 606.961 399.792 599.195 406.12 591.112M591.662 85.2014C590.224 84.2876 595.046 84.7824 596.7 84.3887 603.238 82.8284 609.844 81.6942 616.508 80.8382 633.835 78.6168 650.222 78.0859 667.382 81.8712 714.45 92.2519 754.427 127.53 802.335 133.164 820.959 135.357 848.861 129.04 850.295 106.053 852.415 72.0142 809.707 43.4871 782.318 33.8287 736.681 17.7375 675.155 5.97704 628.092 14.0678 598.904 19.0848 572.5 35.3494 542.467 28.7901" stroke="#6064B8" stroke-width="7.85959" stroke-linecap="round" stroke-linejoin="round" stroke-miterlimit="10" fill="none" transform="matrix(1.00021 0 0 -1 940.526 921.932)"/></g></g></g></g></g></svg>