<svg width="1922" height="1924" xmlns="http://www.w3.org/2000/svg" xmlns:xlink="http://www.w3.org/1999/xlink" overflow="hidden"><defs><clipPath id="clip0"><rect x="-1" y="-277" width="1922" height="1924"/></clipPath><clipPath id="clip1"><rect x="0" y="-276" width="1920" height="1922"/></clipPath><clipPath id="clip2"><rect x="0" y="-276" width="1921" height="1922"/></clipPath><clipPath id="clip3"><rect x="0" y="-276" width="1921" height="1922"/></clipPath></defs><g clip-path="url(#clip0)" transform="translate(1 277)"><g clip-path="url(#clip1)"><g clip-path="url(#clip2)"><g clip-path="url(#clip3)"><path d="M75.5536 176.281 86.0927 197.636 109.672 201.057 92.6126 217.686 96.6472 241.158 75.5536 230.082 54.4753 241.158 58.5099 217.686 41.4509 201.057 65.0144 197.636 75.5536 176.281" fill="#F6F797" transform="matrix(1.00101 0 0 1 -22.0147 -300.544)"/><path d="M227.643 26.7851 238.182 48.1549 261.76 51.5759 244.702 68.2053 248.721 91.6768 227.643 80.5854 206.564 91.6768 210.584 68.2053 193.54 51.5759 217.103 48.1549 227.643 26.7851" fill="#A7E1D0" transform="matrix(1.00101 0 0 1 -22.0147 -300.544)"/><path d="M355.186 207.224 365.725 228.578 389.289 231.999 372.23 248.629 376.264 272.1 355.186 261.024 334.108 272.1 338.127 248.629 321.068 231.999 344.647 228.578 355.186 207.224" fill="#EAB7DF" transform="matrix(1.00101 0 0 1 -22.0147 -300.544)"/><path d="M503.639 238.642 514.178 259.996 537.757 263.417 520.698 280.047 524.718 303.518 503.639 292.442 482.561 303.518 486.58 280.047 469.521 263.417 493.1 259.996 503.639 238.642" fill="#F6F797" transform="matrix(1.00101 0 0 1 -22.0147 -300.544)"/><path d="M703.791 224.129 714.33 245.484 737.894 248.92 720.85 265.534 724.869 289.006 703.791 277.93 682.713 289.006 686.732 265.534 669.673 248.92 693.252 245.484 703.791 224.129" fill="#C7ECEF" transform="matrix(1.00101 0 0 1 -22.0147 -300.544)"/><path d="M634.374 92.1063 623.835 113.461 600.271 116.882 617.33 133.511 613.296 156.998 634.374 145.907 655.467 156.998 651.433 133.511 668.492 116.882 644.928 113.461 634.374 92.1063" fill="#FFFFFF" transform="matrix(1.00101 0 0 1 -22.0147 -300.544)"/><path d="M505.864 25.343 495.325 46.6975 471.746 50.1185 488.805 66.7479 484.77 90.2347 505.864 79.1433 526.942 90.2347 522.923 66.7479 539.966 50.1185 516.403 46.6975 505.864 25.343" fill="#A7E1D0" transform="matrix(1.00101 0 0 1 -22.0147 -300.544)"/><path d="M356.122 70.5525 345.583 91.9069 322.004 95.3279 339.063 111.957 335.044 135.429 356.122 124.353 377.2 135.429 373.181 111.957 390.24 95.3279 366.661 91.9069 356.122 70.5525" fill="#EAB7DF" transform="matrix(1.00101 0 0 1 -22.0147 -300.544)"/><path d="M209.034 175.254 198.495 196.608 174.916 200.029 191.975 216.658 187.956 240.13 209.034 229.054 230.112 240.13 226.093 216.658 243.137 200.029 219.573 196.608 209.034 175.254" fill="#F6F797" transform="matrix(1.00101 0 0 1 -22.0147 -300.544)"/><path d="M96.6472 56.7611 86.1081 78.1155 62.5292 81.5365 79.5882 98.1659 75.5689 121.637 96.6472 110.561 117.725 121.637 113.706 98.1659 130.75 81.5365 107.186 78.1155 96.6472 56.7611" fill="#C7ECEF" transform="matrix(1.00101 0 0 1 -22.0147 -300.544)"/><path d="M193.371 475.673 203.91 497.027 227.489 500.448 210.43 517.078 214.465 540.549 193.371 529.473 172.293 540.549 176.327 517.078 159.268 500.448 182.832 497.027 193.371 475.673" fill="#FFFFFF" transform="matrix(1.00101 0 0 1 -22.0147 -300.544)"/><path d="M336.24 564.328 346.779 585.682 370.358 589.103 353.299 605.732 357.319 629.204 336.24 618.128 315.162 629.204 319.181 605.732 302.122 589.103 325.701 585.682 336.24 564.328" fill="#A7E1D0" transform="matrix(1.00101 0 0 1 -22.0147 -300.544)"/><path d="M498.485 566.797 509.024 588.167 532.587 591.588 515.544 608.218 519.563 631.689 498.485 620.598 477.406 631.689 481.426 608.218 464.367 591.588 487.946 588.167 498.485 566.797" fill="#EAB7DF" transform="matrix(1.00101 0 0 1 -22.0147 -300.544)"/><path d="M58.6326 535.379 69.1718 556.749 92.7353 560.17 75.6916 576.8 79.7109 600.271 58.6326 589.18 37.5543 600.271 41.5736 576.8 24.5146 560.17 48.0935 556.749 58.6326 535.379" fill="#EAB7DF" transform="matrix(1.00101 0 0 1 -22.0147 -300.544)"/><path d="M594.518 654.654 605.057 676.009 628.636 679.43 611.577 696.059 615.612 719.531 594.518 708.455 573.44 719.531 577.459 696.059 560.416 679.43 583.979 676.009 594.518 654.654" fill="#C7ECEF" transform="matrix(1.00101 0 0 1 -22.0147 -300.544)"/><path d="M692.562 511.816 703.101 533.186 726.68 536.607 709.621 553.236 713.64 576.708 692.562 565.616 671.483 576.708 675.518 553.236 658.459 536.607 682.022 533.186 692.562 511.816" fill="#F6F797" transform="matrix(1.00101 0 0 1 -22.0147 -300.544)"/><path d="M668.446 360.724 657.907 382.079 634.328 385.5 651.387 402.129 647.367 425.601 668.446 414.524 689.524 425.601 685.505 402.129 702.548 385.5 678.985 382.079 668.446 360.724" fill="#FFFFFF" transform="matrix(1.00101 0 0 1 -22.0147 -300.544)"/><path d="M919.79 26.9078 909.251 48.2622 885.672 51.6832 902.731 68.3127 898.712 91.7842 919.79 80.7081 940.868 91.7842 936.849 68.3127 953.893 51.6832 930.329 48.2622 919.79 26.9078" fill="#FFFFFF" transform="matrix(1.00101 0 0 1 -22.0147 -300.544)"/><path d="M931.572 396.069 921.032 417.424 897.454 420.845 914.513 437.474 910.493 460.946 931.572 449.87 952.65 460.946 948.631 437.474 965.674 420.845 942.111 417.424 931.572 396.069" fill="#FFFFFF" transform="matrix(1.00101 0 0 1 -22.0147 -300.544)"/><path d="M350.998 409.293 340.459 430.648 316.88 434.084 333.939 450.698 329.92 474.185 350.998 463.094 372.076 474.185 368.057 450.698 385.101 434.084 361.537 430.648 350.998 409.293" fill="#C7ECEF" transform="matrix(1.00101 0 0 1 -22.0147 -300.544)"/><path d="M527.663 394.95 517.124 416.304 493.56 419.74 510.619 436.354 506.585 459.841 527.663 448.75 548.757 459.841 544.722 436.354 561.781 419.74 538.218 416.304 527.663 394.95" fill="#EAB7DF" transform="matrix(1.00101 0 0 1 -22.0147 -300.544)"/><path d="M214.235 353.115 203.695 374.47 180.132 377.906 197.191 394.52 193.156 418.007 214.235 406.915 235.313 418.007 231.294 394.52 248.353 377.906 224.774 374.47 214.235 353.115" fill="#F6F797" transform="matrix(1.00101 0 0 1 -22.0147 -300.544)"/><path d="M56.0094 320.715 45.4702 342.085 21.8914 345.506 38.9504 362.136 34.9311 385.607 56.0094 374.531 77.0876 385.607 73.0684 362.136 90.112 345.506 66.5485 342.085 56.0094 320.715" fill="#A7E1D0" transform="matrix(1.00101 0 0 1 -22.0147 -300.544)"/><path d="M910.754 162.321 921.293 183.676 944.872 187.112 927.813 203.726 931.832 227.213 910.754 216.122 889.676 227.213 893.695 203.726 876.651 187.112 900.215 183.676 910.754 162.321" fill="#F6F797" transform="matrix(1.00101 0 0 1 -22.0147 -300.544)"/><path d="M1469.64 180.93 1480.17 202.284 1503.74 205.72 1486.69 222.335 1490.71 245.806 1469.64 234.73 1448.56 245.806 1452.58 222.335 1435.52 205.72 1459.1 202.284 1469.64 180.93" fill="#EAB7DF" transform="matrix(1.00101 0 0 1 -22.0147 -300.544)"/><path d="M1294.97 222.841 1305.5 244.211 1329.08 247.632 1312.02 264.261 1316.04 287.733 1294.97 276.641 1273.89 287.733 1277.91 264.261 1260.86 247.632 1284.43 244.211 1294.97 222.841" fill="#C7ECEF" transform="matrix(1.00101 0 0 1 -22.0147 -300.544)"/><path d="M1118.3 198.725 1128.84 220.079 1152.4 223.516 1135.36 240.13 1139.38 263.617 1118.3 252.525 1097.22 263.617 1101.24 240.13 1084.18 223.516 1107.76 220.079 1118.3 198.725" fill="#C7ECEF" transform="matrix(1.00101 0 0 1 -22.0147 -300.544)"/><path d="M1388.44 25.343 1377.9 46.6975 1354.33 50.1185 1371.38 66.7479 1367.36 90.2347 1388.44 79.1433 1409.52 90.2347 1405.5 66.7479 1422.55 50.1185 1398.99 46.6975 1388.44 25.343" fill="#F6F797" transform="matrix(1.00101 0 0 1 -22.0147 -300.544)"/><path d="M1228.51 52.8338 1217.97 74.1882 1194.39 77.6092 1211.45 94.2387 1207.42 117.725 1228.51 106.634 1249.59 117.725 1245.55 94.2387 1262.61 77.6092 1239.05 74.1882 1228.51 52.8338" fill="#A7E1D0" transform="matrix(1.00101 0 0 1 -22.0147 -300.544)"/><path d="M1070.91 58.7707 1060.37 80.1251 1036.81 83.5461 1053.85 100.176 1049.83 123.647 1070.91 112.571 1091.99 123.647 1087.97 100.176 1105.02 83.5461 1081.45 80.1251 1070.91 58.7707" fill="#EAB7DF" transform="matrix(1.00101 0 0 1 -22.0147 -300.544)"/><path d="M833.084 283.759 822.529 305.114 798.966 308.55 816.025 325.164 811.99 348.651 833.084 337.56 854.162 348.651 850.127 325.164 867.186 308.55 843.623 305.114 833.084 283.759" fill="#F6F797" transform="matrix(1.00101 0 0 1 -22.0147 -300.544)"/><path d="M756.456 44.9793 745.917 66.3337 722.338 69.7547 739.397 86.3842 735.378 109.871 756.456 98.7796 777.534 109.871 773.515 86.3842 790.559 69.7547 766.995 66.3337 756.456 44.9793" fill="#C7ECEF" transform="matrix(1.00101 0 0 1 -22.0147 -300.544)"/><path d="M841.398 499.958 851.953 521.312 875.516 524.748 858.457 541.362 862.492 564.834 841.398 553.758 820.32 564.834 824.355 541.362 807.296 524.748 830.859 521.312 841.398 499.958" fill="#FFFFFF" transform="matrix(1.00101 0 0 1 -22.0147 -300.544)"/><path d="M956.777 756.763 967.316 778.117 990.895 781.538 973.836 798.168 977.855 821.639 956.777 810.563 935.698 821.639 939.718 798.168 922.659 781.538 946.237 778.117 956.777 756.763" fill="#A7E1D0" transform="matrix(1.00101 0 0 1 -22.0147 -300.544)"/><path d="M1151.08 617.299 1161.62 638.654 1185.19 642.09 1168.13 658.704 1172.16 682.176 1151.08 671.1 1129.99 682.176 1134.02 658.704 1116.97 642.09 1140.54 638.654 1151.08 617.299" fill="#EAB7DF" transform="matrix(1.00101 0 0 1 -22.0147 -300.544)"/><path d="M1368.08 572.09 1378.62 593.46 1402.2 596.881 1385.14 613.51 1389.17 636.982 1368.08 625.89 1347 636.982 1351.04 613.51 1333.98 596.881 1357.54 593.46 1368.08 572.09" fill="#F6F797" transform="matrix(1.00101 0 0 1 -22.0147 -300.544)"/><path d="M1261.49 337.161 1250.95 358.515 1227.37 361.936 1244.43 378.566 1240.41 402.037 1261.49 390.961 1282.57 402.037 1278.55 378.566 1295.59 361.936 1272.03 358.515 1261.49 337.161" fill="#F6F797" transform="matrix(1.00101 0 0 1 -22.0147 -300.544)"/><path d="M1077.57 346.457 1067.03 367.812 1043.45 371.248 1060.51 387.877 1056.49 411.349 1077.57 400.257 1098.65 411.349 1094.63 387.877 1111.67 371.248 1088.11 367.812 1077.57 346.457" fill="#C7ECEF" transform="matrix(1.00101 0 0 1 -22.0147 -300.544)"/><path d="M1152.13 477.422 1141.59 498.776 1118.02 502.213 1135.08 518.827 1131.05 542.314 1152.13 531.222 1173.2 542.314 1169.19 518.827 1186.24 502.213 1162.68 498.776 1152.13 477.422" fill="#EAB7DF" transform="matrix(1.00101 0 0 1 -22.0147 -300.544)"/><path d="M1884.87 208.42 1895.41 229.775 1918.98 233.211 1901.92 249.825 1905.94 273.297 1884.87 262.221 1863.79 273.297 1867.81 249.825 1850.76 233.211 1874.33 229.775 1884.87 208.42" fill="#EAB7DF" transform="matrix(1.00101 0 0 1 -22.0147 -300.544)"/><path d="M1765.27 197.36 1775.81 218.714 1799.37 222.15 1782.33 238.765 1786.35 262.251 1765.27 251.16 1744.18 262.251 1748.21 238.765 1731.15 222.15 1754.73 218.714 1765.27 197.36" fill="#C7ECEF" transform="matrix(1.00101 0 0 1 -22.0147 -300.544)"/><path d="M1601.74 196.086 1612.27 217.441 1635.85 220.862 1618.79 237.491 1622.83 260.963 1601.74 249.887 1580.66 260.963 1584.69 237.491 1567.63 220.862 1591.2 217.441 1601.74 196.086" fill="#C7ECEF" transform="matrix(1.00101 0 0 1 -22.0147 -300.544)"/><path d="M1878.28 37.1248 1867.75 58.4792 1844.18 61.9002 1861.24 78.5297 1857.21 102.001 1878.28 90.9251 1899.38 102.001 1895.34 78.5297 1912.4 61.9002 1888.84 58.4792 1878.28 37.1248" fill="#FFFFFF" transform="matrix(1.00101 0 0 1 -22.0147 -300.544)"/><path d="M1731.5 39.0424 1720.96 60.4122 1697.39 63.8332 1714.44 80.4473 1710.41 103.934 1731.5 92.8427 1752.58 103.934 1748.55 80.4473 1765.61 63.8332 1742.04 60.4122 1731.5 39.0424" fill="#A7E1D0" transform="matrix(1.00101 0 0 1 -22.0147 -300.544)"/><path d="M1569.34 60.136 1558.8 81.4905 1535.23 84.9115 1552.29 101.541 1548.26 125.012 1569.34 113.936 1590.43 125.012 1586.39 101.541 1603.45 84.9115 1579.87 81.4905 1569.34 60.136" fill="#EAB7DF" transform="matrix(1.00101 0 0 1 -22.0147 -300.544)"/><path d="M1419 459.565 1429.53 480.935 1453.11 484.356 1436.05 500.985 1440.07 524.457 1419 513.365 1397.92 524.457 1401.94 500.985 1384.89 484.356 1408.46 480.935 1419 459.565" fill="#EAB7DF" transform="matrix(1.00101 0 0 1 -22.0147 -300.544)"/><path d="M1573.39 426.782 1583.92 448.152 1607.5 451.573 1590.44 468.202 1594.46 491.673 1573.39 480.582 1552.31 491.673 1556.33 468.202 1539.27 451.573 1562.85 448.152 1573.39 426.782" fill="#C7ECEF" transform="matrix(1.00101 0 0 1 -22.0147 -300.544)"/><path d="M1752.78 497.396 1763.32 518.75 1786.9 522.186 1769.84 538.8 1773.88 562.272 1752.78 551.196 1731.7 562.272 1735.74 538.8 1718.68 522.186 1742.24 518.75 1752.78 497.396" fill="#F6F797" transform="matrix(1.00101 0 0 1 -22.0147 -300.544)"/><path d="M1895.45 392.142 1884.91 413.497 1861.33 416.918 1878.39 433.547 1874.37 457.019 1895.45 445.942 1916.53 457.019 1912.51 433.547 1929.55 416.918 1905.99 413.497 1895.45 392.142" fill="#FFFFFF" transform="matrix(1.00101 0 0 1 -22.0147 -300.544)"/><path d="M1467.95 349.111 1457.42 370.466 1433.85 373.887 1450.9 390.516 1446.87 413.988 1467.95 402.911 1489.04 413.988 1485.01 390.516 1502.07 373.887 1478.5 370.466 1467.95 349.111" fill="#C7ECEF" transform="matrix(1.00101 0 0 1 -22.0147 -300.544)"/><path d="M1705.45 334.675 1694.92 356.03 1671.35 359.466 1688.41 376.096 1684.38 399.567 1705.45 388.476 1726.55 399.567 1722.51 376.096 1739.57 359.466 1715.99 356.03 1705.45 334.675" fill="#EAB7DF" transform="matrix(1.00101 0 0 1 -22.0147 -300.544)"/><path d="M999.716 533.769 989.176 555.123 965.613 558.559 982.672 575.174 978.637 598.66 999.716 587.569 1020.81 598.66 1016.77 575.174 1033.83 558.559 1010.25 555.123 999.716 533.769" fill="#F6F797" transform="matrix(1.00101 0 0 1 -22.0147 -300.544)"/><path d="M232.736 672.526 243.275 693.896 266.838 697.317 249.795 713.947 253.814 737.418 232.736 726.327 211.657 737.418 215.677 713.947 198.618 697.317 222.197 693.896 232.736 672.526" fill="#F6F797" transform="matrix(1.00101 0 0 1 -22.0147 -300.544)"/><path d="M439.576 994.684 450.115 1016.04 473.679 1019.46 456.635 1036.09 460.654 1059.56 439.576 1048.48 418.498 1059.56 422.517 1036.09 405.458 1019.46 429.037 1016.04 439.576 994.684" fill="#EAB7DF" transform="matrix(1.00101 0 0 1 -22.0147 -300.544)"/><path d="M595.884 1045.74 606.423 1067.09 630.002 1070.51 612.943 1087.14 616.962 1110.61 595.884 1099.54 574.805 1110.61 578.825 1087.14 561.781 1070.51 585.345 1067.09 595.884 1045.74" fill="#FFFFFF" transform="matrix(1.00101 0 0 1 -22.0147 -300.544)"/><path d="M772.472 1024.74 783.011 1046.09 806.59 1049.51 789.531 1066.14 793.55 1089.61 772.472 1078.54 751.394 1089.61 755.413 1066.14 738.369 1049.51 761.933 1046.09 772.472 1024.74" fill="#C7ECEF" transform="matrix(1.00101 0 0 1 -22.0147 -300.544)"/><path d="M714.852 737.541 704.313 758.895 680.734 762.332 697.793 778.946 693.758 802.433 714.852 791.341 735.93 802.433 731.895 778.946 748.954 762.332 725.391 758.895 714.852 737.541" fill="#FFFFFF" transform="matrix(1.00101 0 0 1 -22.0147 -300.544)"/><path d="M596.19 889.43 585.651 910.785 562.073 914.206 579.132 930.835 575.097 954.307 596.19 943.231 617.269 954.307 613.25 930.835 630.293 914.206 606.73 910.785 596.19 889.43" fill="#A7E1D0" transform="matrix(1.00101 0 0 1 -22.0147 -300.544)"/><path d="M437.873 790.513 427.334 811.883 403.755 815.304 420.814 831.933 416.795 855.404 437.873 844.313 458.951 855.404 454.932 831.933 471.976 815.304 448.412 811.883 437.873 790.513" fill="#FFFFFF" transform="matrix(1.00101 0 0 1 -22.0147 -300.544)"/><path d="M283.652 829.816 273.113 851.17 249.534 854.607 266.593 871.236 262.574 894.708 283.652 883.616 304.73 894.708 300.711 871.236 317.755 854.607 294.191 851.17 283.652 829.816" fill="#F6F797" transform="matrix(1.00101 0 0 1 -22.0147 -300.544)"/><path d="M91.2165 1006.54 80.6774 1027.91 57.0985 1031.33 74.1575 1047.96 70.1383 1071.43 91.2165 1060.34 112.295 1071.43 108.276 1047.96 125.319 1031.33 101.756 1027.91 91.2165 1006.54" fill="#F6F797" transform="matrix(1.00101 0 0 1 -22.0147 -300.544)"/><path d="M78.2075 709.743 67.6684 731.098 44.0895 734.534 61.1485 751.148 57.1292 774.635 78.2075 763.544 99.2858 774.635 95.2665 751.148 112.31 734.534 88.7467 731.098 78.2075 709.743" fill="#C7ECEF" transform="matrix(1.00101 0 0 1 -22.0147 -300.544)"/><path d="M110.991 847.059 100.452 868.429 76.8729 871.85 93.9319 888.464 89.9126 911.951 110.991 900.859 132.069 911.951 128.05 888.464 145.094 871.85 121.53 868.429 110.991 847.059" fill="#A7E1D0" transform="matrix(1.00101 0 0 1 -22.0147 -300.544)"/><path d="M909.312 911.797 919.851 933.152 943.415 936.573 926.371 953.202 930.39 976.674 909.312 965.582 888.234 976.674 892.253 953.202 875.194 936.573 898.773 933.152 909.312 911.797" fill="#F6F797" transform="matrix(1.00101 0 0 1 -22.0147 -300.544)"/><path d="M990.849 1026.18 1001.39 1047.55 1024.95 1050.97 1007.89 1067.6 1011.93 1091.07 990.849 1079.98 969.755 1091.07 973.79 1067.6 956.731 1050.97 980.294 1047.55 990.849 1026.18" fill="#A7E1D0" transform="matrix(1.00101 0 0 1 -22.0147 -300.544)"/><path d="M1421.62 911.49 1432.16 932.845 1455.72 936.266 1438.66 952.895 1442.7 976.367 1421.62 965.275 1400.53 976.367 1404.56 952.895 1387.5 936.266 1411.08 932.845 1421.62 911.49" fill="#EAB7DF" transform="matrix(1.00101 0 0 1 -22.0147 -300.544)"/><path d="M1260.74 1001.82 1271.28 1023.17 1294.84 1026.59 1277.78 1043.22 1281.82 1066.69 1260.74 1055.6 1239.65 1066.69 1243.68 1043.22 1226.62 1026.59 1250.2 1023.17 1260.74 1001.82" fill="#F6F797" transform="matrix(1.00101 0 0 1 -22.0147 -300.544)"/><path d="M1138.57 920.787 1149.12 942.141 1172.68 945.578 1155.62 962.192 1159.66 985.679 1138.57 974.587 1117.49 985.679 1121.52 962.192 1104.46 945.578 1128.03 942.141 1138.57 920.787" fill="#C7ECEF" transform="matrix(1.00101 0 0 1 -22.0147 -300.544)"/><path d="M1401.43 796.45 1390.88 817.804 1367.31 821.24 1384.37 837.855 1380.34 861.341 1401.43 850.25 1422.51 861.341 1418.47 837.855 1435.53 821.24 1411.95 817.804 1401.43 796.45" fill="#FFFFFF" transform="matrix(1.00101 0 0 1 -22.0147 -300.544)"/><path d="M1259.21 751.977 1248.65 773.331 1225.09 776.752 1242.15 793.381 1238.11 816.853 1259.21 805.777 1280.28 816.853 1276.25 793.381 1293.31 776.752 1269.74 773.331 1259.21 751.977" fill="#A7E1D0" transform="matrix(1.00101 0 0 1 -22.0147 -300.544)"/><path d="M1077.32 742.925 1066.79 764.28 1043.21 767.701 1060.27 784.33 1056.23 807.802 1077.32 796.71 1098.4 807.802 1094.37 784.33 1111.43 767.701 1087.86 764.28 1077.32 742.925" fill="#EAB7DF" transform="matrix(1.00101 0 0 1 -22.0147 -300.544)"/><path d="M747.881 856.509 737.326 877.863 713.763 881.284 730.822 897.914 726.787 921.385 747.881 910.294 768.959 921.385 764.924 897.914 781.983 881.284 758.42 877.863 747.881 856.509" fill="#F6F797" transform="matrix(1.00101 0 0 1 -22.0147 -300.544)"/><path d="M280.538 1001.82 269.983 1023.17 246.42 1026.59 263.479 1043.22 259.444 1066.69 280.538 1055.6 301.616 1066.69 297.581 1043.22 314.64 1026.59 291.077 1023.17 280.538 1001.82" fill="#F6F797" transform="matrix(1.00101 0 0 1 -22.0147 -300.544)"/><path d="M898.389 648.411 887.85 669.78 864.287 673.201 881.33 689.816 877.311 713.302 898.389 702.211 919.468 713.302 915.448 689.816 932.507 673.201 908.929 669.78 898.389 648.411" fill="#C7ECEF" transform="matrix(1.00101 0 0 1 -22.0147 -300.544)"/><path d="M1694.44 708.47 1704.98 729.824 1728.54 733.245 1711.5 749.875 1715.52 773.346 1694.44 762.27 1673.36 773.346 1677.38 749.875 1660.32 733.245 1683.9 729.824 1694.44 708.47" fill="#EAB7DF" transform="matrix(1.00101 0 0 1 -22.0147 -300.544)"/><path d="M1608.15 857.782 1618.69 879.137 1642.27 882.573 1625.21 899.187 1629.23 922.674 1608.15 911.583 1587.07 922.674 1591.09 899.187 1574.03 882.573 1597.61 879.137 1608.15 857.782" fill="#C7ECEF" transform="matrix(1.00101 0 0 1 -22.0147 -300.544)"/><path d="M1878.45 703.392 1867.91 724.762 1844.35 728.183 1861.41 744.797 1857.38 768.284 1878.45 757.192 1899.55 768.284 1895.51 744.797 1912.57 728.183 1888.99 724.762 1878.45 703.392" fill="#FFFFFF" transform="matrix(1.00101 0 0 1 -22.0147 -300.544)"/><path d="M1620.42 569.221 1609.88 590.591 1586.32 594.012 1603.38 610.642 1599.34 634.113 1620.42 623.022 1641.51 634.113 1637.48 610.642 1654.54 594.012 1630.96 590.591 1620.42 569.221" fill="#A7E1D0" transform="matrix(1.00101 0 0 1 -22.0147 -300.544)"/><path d="M1536.72 684.569 1526.18 705.923 1502.62 709.344 1519.66 725.974 1515.64 749.445 1536.72 738.369 1557.8 749.445 1553.78 725.974 1570.84 709.344 1547.26 705.923 1536.72 684.569" fill="#FFFFFF" transform="matrix(1.00101 0 0 1 -22.0147 -300.544)"/><path d="M1870.54 562.824 1860 584.179 1836.43 587.6 1853.48 604.229 1849.46 627.701 1870.54 616.625 1891.62 627.701 1887.6 604.229 1904.66 587.6 1881.08 584.179 1870.54 562.824" fill="#EAB7DF" transform="matrix(1.00101 0 0 1 -22.0147 -300.544)"/><path d="M1860.11 845.218 1849.57 866.573 1825.99 870.009 1843.05 886.623 1839.03 910.11 1860.11 899.018 1881.18 910.11 1877.16 886.623 1894.21 870.009 1870.64 866.573 1860.11 845.218" fill="#A7E1D0" transform="matrix(1.00101 0 0 1 -22.0147 -300.544)"/><path d="M75.5536 1315.18 86.0927 1336.54 109.672 1339.96 92.6126 1356.59 96.6472 1380.06 75.5536 1368.98 54.4753 1380.06 58.5099 1356.59 41.4509 1339.96 65.0144 1336.54 75.5536 1315.18" fill="#F6F797" transform="matrix(1.00101 0 0 1 -22.0147 -300.544)"/><path d="M208.006 1161.76 218.545 1183.13 242.124 1186.55 225.065 1203.18 229.085 1226.65 208.006 1215.56 186.928 1226.65 190.947 1203.18 173.904 1186.55 197.467 1183.13 208.006 1161.76" fill="#A7E1D0" transform="matrix(1.00101 0 0 1 -22.0147 -300.544)"/><path d="M366.968 1365.76 377.507 1387.12 401.071 1390.54 384.012 1407.17 388.046 1430.64 366.968 1419.56 345.89 1430.64 349.909 1407.17 332.85 1390.54 356.429 1387.12 366.968 1365.76" fill="#EAB7DF" transform="matrix(1.00101 0 0 1 -22.0147 -300.544)"/><path d="M495.785 1440.38 506.324 1461.74 529.903 1465.16 512.844 1481.79 516.863 1505.26 495.785 1494.18 474.707 1505.26 478.726 1481.79 461.667 1465.16 485.246 1461.74 495.785 1440.38" fill="#C7ECEF" transform="matrix(1.00101 0 0 1 -22.0147 -300.544)"/><path d="M652.737 1394.45 663.276 1415.8 686.839 1419.24 669.796 1435.86 673.815 1459.34 652.737 1448.25 631.659 1459.34 635.678 1435.86 618.619 1419.24 642.198 1415.8 652.737 1394.45" fill="#C7ECEF" transform="matrix(1.00101 0 0 1 -22.0147 -300.544)"/><path d="M618.665 1262.43 608.126 1283.78 584.562 1287.22 601.621 1303.83 597.587 1327.32 618.665 1316.23 639.758 1327.32 635.724 1303.83 652.783 1287.22 629.219 1283.78 618.665 1262.43" fill="#FFFFFF" transform="matrix(1.00101 0 0 1 -22.0147 -300.544)"/><path d="M498.009 1199.59 487.47 1220.95 463.891 1224.38 480.95 1241 476.916 1264.48 498.009 1253.39 519.088 1264.48 515.068 1241 532.112 1224.38 508.548 1220.95 498.009 1199.59" fill="#A7E1D0" transform="matrix(1.00101 0 0 1 -22.0147 -300.544)"/><path d="M360.049 1170.18 349.51 1191.54 325.931 1194.96 342.99 1211.59 338.971 1235.06 360.049 1223.98 381.127 1235.06 377.108 1211.59 394.167 1194.96 370.588 1191.54 360.049 1170.18" fill="#EAB7DF" transform="matrix(1.00101 0 0 1 -22.0147 -300.544)"/><path d="M209.034 1314.14 198.495 1335.51 174.916 1338.93 191.975 1355.56 187.956 1379.03 209.034 1367.96 230.112 1379.03 226.093 1355.56 243.137 1338.93 219.573 1335.51 209.034 1314.14" fill="#FFFFFF" transform="matrix(1.00101 0 0 1 -22.0147 -300.544)"/><path d="M77.0109 1176.03 66.4718 1197.38 42.8929 1200.82 59.9519 1217.43 55.9327 1240.9 77.0109 1229.83 98.0892 1240.9 94.0699 1217.43 111.114 1200.82 87.5501 1197.38 77.0109 1176.03" fill="#C7ECEF" transform="matrix(1.00101 0 0 1 -22.0147 -300.544)"/><path d="M75.5536 1661.7 86.0927 1683.06 109.672 1686.48 92.6126 1703.11 96.6472 1726.58 75.5536 1715.5 54.4753 1726.58 58.5099 1703.11 41.4509 1686.48 65.0144 1683.06 75.5536 1661.7" fill="#FFFFFF" transform="matrix(1.00101 0 0 1 -22.0147 -300.544)"/><path d="M222.35 1726.79 232.889 1748.15 256.468 1751.57 239.409 1768.2 243.428 1791.67 222.35 1780.59 201.272 1791.67 205.291 1768.2 188.232 1751.57 211.811 1748.15 222.35 1726.79" fill="#A7E1D0" transform="matrix(1.00101 0 0 1 -22.0147 -300.544)"/><path d="M447.431 1725.34 457.97 1746.71 481.533 1750.13 464.49 1766.74 468.509 1790.23 447.431 1779.14 426.352 1790.23 430.372 1766.74 413.313 1750.13 436.891 1746.71 447.431 1725.34" fill="#EAB7DF" transform="matrix(1.00101 0 0 1 -22.0147 -300.544)"/><path d="M582.737 1793.56 593.276 1814.91 616.855 1818.33 599.796 1834.96 603.83 1858.43 582.737 1847.36 561.658 1858.43 565.678 1834.96 548.634 1818.33 572.197 1814.91 582.737 1793.56" fill="#C7ECEF" transform="matrix(1.00101 0 0 1 -22.0147 -300.544)"/><path d="M723.98 1701.77 734.519 1723.14 758.098 1726.56 741.039 1743.18 745.058 1766.66 723.98 1755.57 702.901 1766.66 706.936 1743.18 689.877 1726.56 713.44 1723.14 723.98 1701.77" fill="#F6F797" transform="matrix(1.00101 0 0 1 -22.0147 -300.544)"/><path d="M668.446 1519.26 657.907 1540.62 634.328 1544.04 651.387 1560.67 647.367 1584.14 668.446 1573.06 689.524 1584.14 685.505 1560.67 702.548 1544.04 678.985 1540.62 668.446 1519.26" fill="#FFFFFF" transform="matrix(1.00101 0 0 1 -22.0147 -300.544)"/><path d="M919.79 1165.81 909.251 1187.17 885.672 1190.59 902.731 1207.22 898.712 1230.69 919.79 1219.61 940.868 1230.69 936.849 1207.22 953.893 1190.59 930.329 1187.17 919.79 1165.81" fill="#FFFFFF" transform="matrix(1.00101 0 0 1 -22.0147 -300.544)"/><path d="M955.135 1523.19 944.596 1544.55 921.017 1547.97 938.076 1564.6 934.057 1588.07 955.135 1576.99 976.213 1588.07 972.194 1564.6 989.253 1547.97 965.674 1544.55 955.135 1523.19" fill="#FFFFFF" transform="matrix(1.00101 0 0 1 -22.0147 -300.544)"/><path d="M331.362 1607.1 320.823 1628.46 297.244 1631.9 314.303 1648.51 310.284 1672 331.362 1660.91 352.44 1672 348.421 1648.51 365.464 1631.9 341.901 1628.46 331.362 1607.1" fill="#C7ECEF" transform="matrix(1.00101 0 0 1 -22.0147 -300.544)"/><path d="M539.445 1616.32 528.906 1637.68 505.342 1641.12 522.401 1657.73 518.367 1681.22 539.445 1670.13 560.538 1681.22 556.504 1657.73 573.563 1641.12 549.999 1637.68 539.445 1616.32" fill="#EAB7DF" transform="matrix(1.00101 0 0 1 -22.0147 -300.544)"/><path d="M214.235 1492.02 203.695 1513.37 180.132 1516.81 197.191 1533.42 193.156 1556.91 214.235 1545.82 235.313 1556.91 231.294 1533.42 248.353 1516.81 224.774 1513.37 214.235 1492.02" fill="#F6F797" transform="matrix(1.00101 0 0 1 -22.0147 -300.544)"/><path d="M56.0094 1459.62 45.4702 1480.99 21.8914 1484.41 38.9504 1501.04 34.9311 1524.51 56.0094 1513.43 77.0876 1524.51 73.0684 1501.04 90.112 1484.41 66.5485 1480.99 56.0094 1459.62" fill="#A7E1D0" transform="matrix(1.00101 0 0 1 -22.0147 -300.544)"/><path d="M906.827 1316.93 917.366 1338.3 940.945 1341.72 923.886 1358.34 927.905 1381.82 906.827 1370.73 885.749 1381.82 889.768 1358.34 872.724 1341.72 896.288 1338.3 906.827 1316.93" fill="#F6F797" transform="matrix(1.00101 0 0 1 -22.0147 -300.544)"/><path d="M1422.51 1296.27 1433.05 1317.62 1456.61 1321.06 1439.57 1337.67 1443.59 1361.16 1422.51 1350.07 1401.43 1361.16 1405.45 1337.67 1388.39 1321.06 1411.97 1317.62 1422.51 1296.27" fill="#EAB7DF" transform="matrix(1.00101 0 0 1 -22.0147 -300.544)"/><path d="M1283.18 1314.62 1293.72 1335.99 1317.3 1339.41 1300.24 1356.04 1304.26 1379.51 1283.18 1368.43 1262.11 1379.51 1266.12 1356.04 1249.08 1339.41 1272.64 1335.99 1283.18 1314.62" fill="#C7ECEF" transform="matrix(1.00101 0 0 1 -22.0147 -300.544)"/><path d="M1118.3 1345.48 1128.84 1366.84 1152.4 1370.27 1135.36 1386.89 1139.38 1410.36 1118.3 1399.28 1097.22 1410.36 1101.24 1386.89 1084.18 1370.27 1107.76 1366.84 1118.3 1345.48" fill="#C7ECEF" transform="matrix(1.00101 0 0 1 -22.0147 -300.544)"/><path d="M1400.22 1113.19 1389.68 1134.55 1366.12 1137.98 1383.16 1154.6 1379.14 1178.08 1400.22 1166.99 1421.3 1178.08 1417.28 1154.6 1434.34 1137.98 1410.77 1134.55 1400.22 1113.19" fill="#FFFFFF" transform="matrix(1.00101 0 0 1 -22.0147 -300.544)"/><path d="M1600.51 1015.01 1589.97 1036.36 1566.41 1039.8 1583.45 1056.42 1579.43 1079.9 1600.51 1068.81 1621.59 1079.9 1617.57 1056.42 1634.63 1039.8 1611.06 1036.36 1600.51 1015.01" fill="#FFFFFF" transform="matrix(1.00101 0 0 1 -22.0147 -300.544)"/><path d="M1236.36 1144.61 1225.82 1165.96 1202.25 1169.4 1219.3 1186.01 1215.27 1209.5 1236.36 1198.41 1257.44 1209.5 1253.41 1186.01 1270.47 1169.4 1246.9 1165.96 1236.36 1144.61" fill="#A7E1D0" transform="matrix(1.00101 0 0 1 -22.0147 -300.544)"/><path d="M1082.69 1205.53 1072.15 1226.88 1048.59 1230.3 1065.64 1246.93 1061.62 1270.4 1082.69 1259.33 1103.77 1270.4 1099.75 1246.93 1116.8 1230.3 1093.23 1226.88 1082.69 1205.53" fill="#EAB7DF" transform="matrix(1.00101 0 0 1 -22.0147 -300.544)"/><path d="M805.593 1406.95 795.038 1428.32 771.475 1431.74 788.534 1448.37 784.499 1471.84 805.593 1460.75 826.671 1471.84 822.636 1448.37 839.695 1431.74 816.132 1428.32 805.593 1406.95" fill="#F6F797" transform="matrix(1.00101 0 0 1 -22.0147 -300.544)"/><path d="M725.038 1172.1 714.499 1193.45 690.92 1196.89 707.979 1213.51 703.96 1236.99 725.038 1225.9 746.116 1236.99 742.097 1213.51 759.141 1196.89 735.577 1193.45 725.038 1172.1" fill="#C7ECEF" transform="matrix(1.00101 0 0 1 -22.0147 -300.544)"/><path d="M817.835 1599.59 828.389 1620.94 851.953 1624.38 834.894 1640.99 838.928 1664.46 817.835 1653.39 796.756 1664.46 800.791 1640.99 783.732 1624.38 807.296 1620.94 817.835 1599.59" fill="#FFFFFF" transform="matrix(1.00101 0 0 1 -22.0147 -300.544)"/><path d="M1151.08 1756.2 1161.62 1777.56 1185.19 1780.98 1168.13 1797.61 1172.16 1821.09 1151.08 1810 1129.99 1821.09 1134.02 1797.61 1116.97 1780.98 1140.54 1777.56 1151.08 1756.2" fill="#EAB7DF" transform="matrix(1.00101 0 0 1 -22.0147 -300.544)"/><path d="M1387.72 1758.12 1398.25 1779.49 1421.83 1782.91 1404.77 1799.54 1408.81 1823.01 1387.72 1811.92 1366.64 1823.01 1370.67 1799.54 1353.61 1782.91 1377.18 1779.49 1387.72 1758.12" fill="#F6F797" transform="matrix(1.00101 0 0 1 -22.0147 -300.544)"/><path d="M1269.35 1531.05 1258.81 1552.4 1235.23 1555.82 1252.29 1572.45 1248.27 1595.92 1269.35 1584.85 1290.42 1595.92 1286.4 1572.45 1303.45 1555.82 1279.89 1552.4 1269.35 1531.05" fill="#FFFFFF" transform="matrix(1.00101 0 0 1 -22.0147 -300.544)"/><path d="M1085.42 1485.36 1074.89 1506.71 1051.31 1510.15 1068.37 1526.77 1064.35 1550.25 1085.42 1539.16 1106.5 1550.25 1102.48 1526.77 1119.53 1510.15 1095.96 1506.71 1085.42 1485.36" fill="#C7ECEF" transform="matrix(1.00101 0 0 1 -22.0147 -300.544)"/><path d="M1171.76 1616.32 1161.22 1637.68 1137.66 1641.12 1154.72 1657.73 1150.68 1681.22 1171.76 1670.13 1192.84 1681.22 1188.82 1657.73 1205.88 1641.12 1182.32 1637.68 1171.76 1616.32" fill="#EAB7DF" transform="matrix(1.00101 0 0 1 -22.0147 -300.544)"/><path d="M1884.87 1264.85 1895.41 1286.21 1918.98 1289.64 1901.92 1306.26 1905.94 1329.74 1884.87 1318.65 1863.79 1329.74 1867.81 1306.26 1850.76 1289.64 1874.33 1286.21 1884.87 1264.85" fill="#EAB7DF" transform="matrix(1.00101 0 0 1 -22.0147 -300.544)"/><path d="M1741.71 1300.92 1752.24 1322.29 1775.81 1325.71 1758.76 1342.34 1762.78 1365.81 1741.71 1354.72 1720.61 1365.81 1724.65 1342.34 1707.59 1325.71 1731.17 1322.29 1741.71 1300.92" fill="#C7ECEF" transform="matrix(1.00101 0 0 1 -22.0147 -300.544)"/><path d="M1601.74 1334.99 1612.27 1356.34 1635.85 1359.76 1618.79 1376.39 1622.83 1399.87 1601.74 1388.79 1580.66 1399.87 1584.69 1376.39 1567.63 1359.76 1591.2 1356.34 1601.74 1334.99" fill="#F6F797" transform="matrix(1.00101 0 0 1 -22.0147 -300.544)"/><path d="M1774.53 969.755 1785.07 991.109 1808.65 994.53 1791.59 1011.16 1795.63 1034.63 1774.53 1023.56 1753.46 1034.63 1757.49 1011.16 1740.43 994.53 1764 991.109 1774.53 969.755" fill="#C7ECEF" transform="matrix(1.00101 0 0 1 -22.0147 -300.544)"/><path d="M1905.78 1058.21 1895.24 1079.56 1871.67 1083 1888.73 1099.61 1884.7 1123.09 1905.78 1112.01 1926.87 1123.09 1922.83 1099.61 1939.89 1083 1916.33 1079.56 1905.78 1058.21" fill="#FFFFFF" transform="matrix(1.00101 0 0 1 -22.0147 -300.544)"/><path d="M1751.14 1130.82 1740.6 1152.19 1717.02 1155.61 1734.08 1172.24 1730.05 1195.71 1751.14 1184.62 1772.22 1195.71 1768.18 1172.24 1785.24 1155.61 1761.68 1152.19 1751.14 1130.82" fill="#A7E1D0" transform="matrix(1.00101 0 0 1 -22.0147 -300.544)"/><path d="M1545.77 1167.62 1535.23 1188.98 1511.67 1192.4 1528.73 1209.03 1524.69 1232.5 1545.77 1221.42 1566.87 1232.5 1562.83 1209.03 1579.89 1192.4 1556.31 1188.98 1545.77 1167.62" fill="#EAB7DF" transform="matrix(1.00101 0 0 1 -22.0147 -300.544)"/><path d="M1419 1618.1 1429.53 1639.47 1453.11 1642.9 1436.05 1659.52 1440.07 1683 1419 1671.9 1397.92 1683 1401.94 1659.52 1384.89 1642.9 1408.46 1639.47 1419 1618.1" fill="#EAB7DF" transform="matrix(1.00101 0 0 1 -22.0147 -300.544)"/><path d="M1569.46 1616.74 1580 1638.11 1603.58 1641.53 1586.52 1658.16 1590.54 1681.63 1569.46 1670.54 1548.38 1681.63 1552.4 1658.16 1535.34 1641.53 1558.92 1638.11 1569.46 1616.74" fill="#C7ECEF" transform="matrix(1.00101 0 0 1 -22.0147 -300.544)"/><path d="M1752.78 1597.03 1763.32 1618.38 1786.9 1621.8 1769.84 1638.43 1773.88 1661.9 1752.78 1650.83 1731.7 1661.9 1735.74 1638.43 1718.68 1621.8 1742.24 1618.38 1752.78 1597.03" fill="#F6F797" transform="matrix(1.00101 0 0 1 -22.0147 -300.544)"/><path d="M1883.67 1456.43 1873.13 1477.78 1849.55 1481.2 1866.61 1497.83 1862.59 1521.3 1883.67 1510.23 1904.75 1521.3 1900.73 1497.83 1917.77 1481.2 1894.21 1477.78 1883.67 1456.43" fill="#FFFFFF" transform="matrix(1.00101 0 0 1 -22.0147 -300.544)"/><path d="M1432.6 1452.67 1422.08 1474.02 1398.5 1477.44 1415.56 1494.07 1411.52 1517.55 1432.6 1506.47 1453.7 1517.55 1449.66 1494.07 1466.72 1477.44 1443.16 1474.02 1432.6 1452.67" fill="#F6F797" transform="matrix(1.00101 0 0 1 -22.0147 -300.544)"/><path d="M1693.67 1457.87 1683.13 1479.22 1659.57 1482.66 1676.63 1499.27 1672.59 1522.76 1693.67 1511.67 1714.77 1522.76 1710.73 1499.27 1727.79 1482.66 1704.21 1479.22 1693.67 1457.87" fill="#EAB7DF" transform="matrix(1.00101 0 0 1 -22.0147 -300.544)"/><path d="M999.716 1708.02 989.176 1729.37 965.613 1732.81 982.672 1749.42 978.637 1772.91 999.716 1761.82 1020.81 1772.91 1016.77 1749.42 1033.83 1732.81 1010.25 1729.37 999.716 1708.02" fill="#F6F797" transform="matrix(1.00101 0 0 1 -22.0147 -300.544)"/><path d="M279.863 1858.56 290.402 1879.93 313.965 1883.35 296.922 1899.96 300.941 1923.45 279.863 1912.36 258.784 1923.45 262.804 1899.96 245.745 1883.35 269.324 1879.93 279.863 1858.56" fill="#F6F797" transform="matrix(1.00101 0 0 1 -22.0147 -300.544)"/><path d="M726.634 1880.37 716.094 1901.73 692.516 1905.16 709.575 1921.78 705.54 1945.26 726.634 1934.17 747.712 1945.26 743.677 1921.78 760.736 1905.16 737.173 1901.73 726.634 1880.37" fill="#FFFFFF" transform="matrix(1.00101 0 0 1 -22.0147 -300.544)"/><path d="M449.655 1874.43 439.116 1895.8 415.537 1899.22 432.596 1915.85 428.577 1939.33 449.655 1928.23 470.733 1939.33 466.714 1915.85 483.758 1899.22 460.194 1895.8 449.655 1874.43" fill="#EAB7DF" transform="matrix(1.00101 0 0 1 -22.0147 -300.544)"/><path d="M97.8438 1840.79 87.3046 1862.15 63.7258 1865.58 80.7848 1882.2 76.7655 1905.67 97.8438 1894.59 118.922 1905.67 114.903 1882.2 131.946 1865.58 108.383 1862.15 97.8438 1840.79" fill="#C7ECEF" transform="matrix(1.00101 0 0 1 -22.0147 -300.544)"/><path d="M1041.98 1873.96 1031.44 1895.33 1007.86 1898.75 1024.92 1915.38 1020.89 1938.85 1041.98 1927.76 1063.06 1938.85 1059.02 1915.38 1076.08 1898.75 1052.52 1895.33 1041.98 1873.96" fill="#EAB7DF" transform="matrix(1.00101 0 0 1 -22.0147 -300.544)"/><path d="M874.826 1810.88 864.287 1832.23 840.723 1835.65 857.767 1852.28 853.748 1875.77 874.826 1864.68 895.904 1875.77 891.885 1852.28 908.944 1835.65 885.365 1832.23 874.826 1810.88" fill="#C7ECEF" transform="matrix(1.00101 0 0 1 -22.0147 -300.544)"/><path d="M1733.71 1878.79 1744.25 1900.15 1767.82 1903.57 1750.77 1920.2 1754.79 1943.67 1733.71 1932.59 1712.63 1943.67 1716.65 1920.2 1699.59 1903.57 1723.17 1900.15 1733.71 1878.79" fill="#F6F797" transform="matrix(1.00101 0 0 1 -22.0147 -300.544)"/><path d="M1894.16 1830.51 1883.62 1851.87 1860.06 1855.29 1877.12 1871.92 1873.08 1895.41 1894.16 1884.31 1915.26 1895.41 1911.22 1871.92 1928.28 1855.29 1904.7 1851.87 1894.16 1830.51" fill="#FFFFFF" transform="matrix(1.00101 0 0 1 -22.0147 -300.544)"/><path d="M1671.47 1739.54 1660.94 1760.91 1637.37 1764.33 1654.43 1780.96 1650.4 1804.43 1671.47 1793.34 1692.57 1804.43 1688.53 1780.96 1705.59 1764.33 1682.01 1760.91 1671.47 1739.54" fill="#A7E1D0" transform="matrix(1.00101 0 0 1 -22.0147 -300.544)"/><path d="M1274.82 1873.07 1264.28 1894.44 1240.72 1897.86 1257.78 1914.49 1253.74 1937.96 1274.82 1926.87 1295.92 1937.96 1291.88 1914.49 1308.94 1897.86 1285.36 1894.44 1274.82 1873.07" fill="#A7E1D0" transform="matrix(1.00101 0 0 1 -22.0147 -300.544)"/><path d="M1536.72 1847.04 1526.18 1868.39 1502.62 1871.81 1519.66 1888.44 1515.64 1911.91 1536.72 1900.84 1557.8 1911.91 1553.78 1888.44 1570.84 1871.81 1547.26 1868.39 1536.72 1847.04" fill="#EAB7DF" transform="matrix(1.00101 0 0 1 -22.0147 -300.544)"/><path d="M1882.32 1674.24 1871.78 1695.59 1848.22 1699.01 1865.26 1715.64 1861.24 1739.11 1882.32 1728.04 1903.4 1739.11 1899.38 1715.64 1916.44 1699.01 1892.86 1695.59 1882.32 1674.24" fill="#EAB7DF" transform="matrix(1.00101 0 0 1 -22.0147 -300.544)"/></g></g></g></g></svg>